<?xml version="1.0" encoding="UTF-8" standalone="no"?><!DOCTYPE svg PUBLIC "-//W3C//DTD SVG 1.1//EN" "http://www.w3.org/Graphics/SVG/1.1/DTD/svg11.dtd"><svg width="100%" height="100%" viewBox="0 0 100 100" version="1.1" xmlns="http://www.w3.org/2000/svg" xmlns:xlink="http://www.w3.org/1999/xlink" xml:space="preserve" style="fill-rule:evenodd;clip-rule:evenodd;stroke-linejoin:round;stroke-miterlimit:1.41421;"><path id="Warning-Circle-Icon" d="M50,98.847c-27.512,0 -49.814,-21.869 -49.814,-48.847c0,-26.976 22.302,-48.847 49.814,-48.847c27.511,0 49.814,21.871 49.814,48.847c0,26.978 -22.303,48.847 -49.814,48.847Zm6.497,-70.084c0,-3.518 -2.909,-6.371 -6.498,-6.371c-3.588,0 -6.497,2.853 -6.497,6.371l0,25.485c0,3.518 2.909,6.371 6.497,6.371c3.589,0 6.498,-2.853 6.498,-6.371l0,-25.485Zm-6.498,36.105c-3.588,0 -6.497,2.851 -6.497,6.37c0,3.519 2.909,6.371 6.497,6.371c3.589,0 6.498,-2.852 6.498,-6.371c0,-3.519 -2.909,-6.37 -6.498,-6.37Z" style="fill:#f9736a;"/></svg>