<?xml version="1.0" encoding="UTF-8" standalone="no"?><!DOCTYPE svg PUBLIC "-//W3C//DTD SVG 1.1//EN" "http://www.w3.org/Graphics/SVG/1.1/DTD/svg11.dtd"><svg width="100%" height="100%" viewBox="0 0 50 50" version="1.1" xmlns="http://www.w3.org/2000/svg" xmlns:xlink="http://www.w3.org/1999/xlink" xml:space="preserve" style="fill-rule:evenodd;clip-rule:evenodd;stroke-linejoin:round;stroke-miterlimit:1.41421;"><path id="Close-Icon" d="M47.91,7.815l-17.183,17.184l17.183,17.183c1.582,1.581 1.582,4.146 0,5.728c-1.581,1.582 -4.146,1.582 -5.728,0l-17.182,-17.183l-17.183,17.183c-1.581,1.582 -4.146,1.582 -5.727,0c-1.582,-1.582 -1.582,-4.147 0,-5.728l17.182,-17.183l-17.182,-17.184c-1.582,-1.581 -1.582,-4.144 0,-5.726c1.581,-1.581 4.146,-1.581 5.727,0l17.183,17.182l17.182,-17.182c1.582,-1.581 4.147,-1.581 5.728,0c1.582,1.582 1.582,4.145 0,5.726Z" style="fill:#464646;"/></svg>