<?xml version="1.0" encoding="UTF-8" standalone="no"?><!DOCTYPE svg PUBLIC "-//W3C//DTD SVG 1.1//EN" "http://www.w3.org/Graphics/SVG/1.1/DTD/svg11.dtd"><svg width="100%" height="100%" viewBox="0 0 500 80" version="1.1" xmlns="http://www.w3.org/2000/svg" xmlns:xlink="http://www.w3.org/1999/xlink" xml:space="preserve" style="fill-rule:evenodd;clip-rule:evenodd;stroke-linejoin:round;stroke-miterlimit:1.41421;"><g id="Normal"><g><path id="Base" d="M492.549,17.232c0,-3.591 -2.915,-6.506 -6.505,-6.506l-472.088,0c-3.59,0 -6.505,2.915 -6.505,6.506l0,45.536c0,3.591 2.915,6.506 6.505,6.506l472.088,0c3.59,0 6.505,-2.915 6.505,-6.506l0,-45.536Z" style="fill:#f9736a;"/><g><text id="Normal1" x="149.317px" y="47.092px" style="font-family:'KozGoPro-Bold', 'Kozuka Gothic Pro', sans-serif;font-weight:700;font-size:22px;fill:#fff;">履<tspan x="173.918px 198.518px 223.119px 247.72px 272.321px 296.922px 321.523px 345.696px " y="47.092px 47.092px 47.092px 47.092px 47.092px 47.092px 47.092px 47.092px ">修予定を解除する</tspan></text><path id="Close-Circle-Icon" d="M129.906,50.881c-6.352,0 -11.5,-5.148 -11.5,-11.5c0,-6.351 5.148,-11.5 11.5,-11.5c6.351,0 11.5,5.149 11.5,11.5c0,6.352 -5.149,11.5 -11.5,11.5Zm4.069,-15.588c-0.558,-0.557 -1.462,-0.557 -2.02,0l-2.059,2.059l-2.059,-2.059c-0.557,-0.557 -1.462,-0.557 -2.019,0c-0.558,0.559 -0.558,1.463 0,2.02l2.059,2.059l-2.059,2.059c-0.558,0.558 -0.558,1.462 0,2.02c0.557,0.558 1.462,0.558 2.019,0l2.059,-2.059l2.059,2.059c0.558,0.558 1.462,0.558 2.02,0c0.558,-0.558 0.558,-1.462 0,-2.02l-2.059,-2.059l2.059,-2.059c0.558,-0.557 0.558,-1.461 0,-2.02Z" style="fill:#fff;"/></g></g></g></svg>