<?xml version="1.0" encoding="UTF-8" standalone="no"?><!DOCTYPE svg PUBLIC "-//W3C//DTD SVG 1.1//EN" "http://www.w3.org/Graphics/SVG/1.1/DTD/svg11.dtd"><svg width="100%" height="100%" viewBox="0 0 500 500" version="1.1" xmlns="http://www.w3.org/2000/svg" xmlns:xlink="http://www.w3.org/1999/xlink" xml:space="preserve" style="fill-rule:evenodd;clip-rule:evenodd;stroke-linecap:square;stroke-linejoin:round;stroke-miterlimit:1.5;"><ellipse cx="249.533" cy="250.424" rx="249.233" ry="249.334" style="fill:#fff;"/><ellipse cx="249.533" cy="250.424" rx="232.048" ry="233.529" style="fill:#96d946;fill-opacity:0.25;"/><g><path d="M86.001,135.651l-5.253,7.977l2.314,1.541l1.74,-2.644l9.292,6.197l1.75,-2.659l-9.292,-6.197l1.762,-2.674l-2.313,-1.541Z" style="fill:#fff;fill-rule:nonzero;"/><path d="M99.698,118.085l3.61,4.128c1.094,1.255 2.158,2.432 3.327,3.655l-0.036,0.041c-1.398,-0.945 -2.683,-1.743 -4.087,-2.569l-4.826,-2.838l-1.965,2.364l3.494,4.269c1.103,1.329 2.137,2.626 3.228,3.827l-0.023,0.03c-1.3,-0.838 -2.755,-1.801 -4.147,-2.668l-4.68,-2.9l-2.161,2.599l12.514,6.781l2.149,-2.584l-3.199,-4.09c-0.849,-1.094 -1.788,-2.17 -2.897,-3.434l0.024,-0.027c1.398,0.942 2.617,1.708 3.762,2.364l4.495,2.561l2.173,-2.614l-8.722,-11.34l-2.033,2.445l0,0Z" style="fill:#fff;fill-rule:nonzero;"/><path d="M118.6,118.371l2.265,-2.233l-9.735,-10.013l-2.266,2.23l9.736,10.016Z" style="fill:#fff;fill-rule:nonzero;"/><path d="M127.164,92.082l-2.203,1.813l2.099,2.581c1.46,1.795 2.924,3.425 4.074,4.582l-0.026,0.024c-1.294,-0.761 -3.008,-1.667 -4.284,-2.233l-4.999,-2.37l-2.62,2.158l8.817,10.842l2.203,-1.816l-2.167,-2.665c-1.574,-1.934 -2.978,-3.544 -4.072,-4.748l0.054,-0.045c1.303,0.799 3.067,1.711 4.415,2.337l5.085,2.391l2.438,-2.009l-8.814,-10.842l0,0Z" style="fill:#fff;fill-rule:nonzero;"/><path d="M142.766,81.598c-0.736,0.099 -1.75,0.43 -2.859,1.169c-2.688,1.794 -3.162,4.352 -1.86,6.328c0.915,1.392 2.617,1.908 5.005,1.533c1.559,-0.26 2.346,-0.218 2.811,0.494c0.459,0.695 0.239,1.538 -0.873,2.278c-0.93,0.623 -2.096,0.986 -2.919,1.079l1.023,2.537c0.739,-0.06 2.092,-0.528 3.264,-1.309c2.805,-1.872 3.416,-4.456 2.015,-6.585c-0.957,-1.452 -2.48,-2.086 -4.871,-1.687c-1.839,0.292 -2.531,0.295 -2.957,-0.352c-0.378,-0.575 -0.211,-1.404 0.808,-2.086c0.93,-0.62 1.8,-0.808 2.361,-0.877l-0.948,-2.522l0,0Z" style="fill:#fff;fill-rule:nonzero;"/><path d="M178.525,78.078l2.939,-1.145l-1.795,-4.665c0.209,-0.062 0.468,-0.143 0.752,-0.253c2.033,-0.79 4.647,-2.781 3.252,-6.415c-0.468,-1.216 -1.383,-2.143 -2.468,-2.498c-1.157,-0.405 -2.528,-0.203 -4.242,0.465c-1.479,0.575 -2.608,1.151 -3.389,1.63l4.951,12.881Zm-1.187,-11.879c0.149,-0.116 0.448,-0.289 0.85,-0.447c1.177,-0.456 2.152,-0.081 2.614,1.121c0.453,1.183 0.033,2.298 -1.344,2.835c-0.301,0.119 -0.492,0.172 -0.686,0.229l-1.434,-3.738l0,0Z" style="fill:#fff;fill-rule:nonzero;"/><path d="M202.503,67.15l-4.435,1.258l-3.05,-10.886l-3.049,0.864l3.773,13.486l7.488,-2.123l-0.727,-2.599l0,0Z" style="fill:#fff;fill-rule:nonzero;"/><path d="M215.977,52.702l-3.95,0.727l-1.115,14.445l3.154,-0.578l0.161,-3.348l3.154,-0.578l1.38,3.062l3.222,-0.591l-6.006,-13.139Zm-1.807,8.808l0.12,-2.879c0.014,-0.814 0.017,-2.12 0.041,-2.99l0.036,-0.009c0.328,0.808 0.784,1.994 1.109,2.781l1.103,2.653l-2.409,0.444l0,0Z" style="fill:#fff;fill-rule:nonzero;"/><path d="M240.042,49.995l-2.838,0.212l0.244,3.326c0.17,2.313 0.438,4.492 0.719,6.108l-0.036,0.003c-0.623,-1.371 -1.509,-3.106 -2.23,-4.307l-2.736,-4.829l-3.378,0.25l1.026,13.971l2.838,-0.211l-0.254,-3.434c-0.182,-2.492 -0.411,-4.621 -0.62,-6.239l0.072,-0.006c0.611,1.407 1.535,3.175 2.28,4.465l2.796,4.898l3.142,-0.236l-1.025,-13.971l0,0Z" style="fill:#fff;fill-rule:nonzero;"/><path d="M261.573,50.141l-2.844,-0.101l-0.116,3.332c-0.081,2.319 -0.048,4.513 0.056,6.15l-0.036,0c-0.474,-1.431 -1.165,-3.252 -1.752,-4.525l-2.2,-5.1l-3.384,-0.12l-0.488,14.002l2.843,0.101l0.12,-3.443c0.086,-2.498 0.089,-4.638 0.056,-6.272l0.072,0.003c0.453,1.467 1.18,3.324 1.782,4.686l2.254,5.175l3.148,0.113l0.489,-14.001Z" style="fill:#fff;fill-rule:nonzero;"/><path d="M270.807,65.084l3.145,0.397l1.729,-13.9l-3.145,-0.397l-1.729,13.9Z" style="fill:#fff;fill-rule:nonzero;"/><path d="M296.595,55.477l-2.781,-0.608l-0.701,3.261c-0.488,2.265 -0.843,4.432 -1.028,6.06l-0.036,-0.006c-0.211,-1.493 -0.575,-3.407 -0.927,-4.764l-1.267,-5.413l-3.308,-0.721l-2.949,13.691l2.782,0.608l0.724,-3.365c0.528,-2.445 0.906,-4.552 1.16,-6.165l0.071,0.015c0.188,1.526 0.578,3.482 0.93,4.931l1.306,5.496l3.079,0.671l2.945,-13.691l0,0Z" style="fill:#fff;fill-rule:nonzero;"/><path d="M315.166,67.281l-4.412,-1.461l-0.784,2.394l1.574,0.522l-0.909,2.787c-0.2,0.03 -0.554,-0.048 -0.981,-0.191c-1.812,-0.599 -2.822,-2.441 -1.901,-5.264c0.989,-3.032 3.01,-3.756 5.13,-3.053c1.112,0.367 1.767,0.793 2.265,1.246l1.386,-2.328c-0.492,-0.468 -1.502,-1.088 -2.888,-1.547c-3.711,-1.228 -7.557,0.039 -9.059,4.636c-0.68,2.083 -0.665,4.128 0.155,5.678c0.724,1.383 2.048,2.433 4.137,3.124c1.419,0.468 3.071,0.635 3.953,0.602l2.334,-7.145l0,0Z" style="fill:#fff;fill-rule:nonzero;"/><path d="M343.985,89.808l2.671,1.681l2.638,-4.239c0.173,0.131 0.394,0.289 0.653,0.453c1.848,1.166 4.996,2.081 7.05,-1.222c0.689,-1.106 0.876,-2.4 0.513,-3.485c-0.376,-1.177 -1.357,-2.158 -2.913,-3.138c-1.344,-0.847 -2.48,-1.413 -3.329,-1.756l-7.283,11.706l0,0Zm8.74,-8.073c0.182,0.051 0.501,0.188 0.868,0.418c1.067,0.673 1.35,1.687 0.674,2.775c-0.671,1.076 -1.81,1.407 -3.062,0.617c-0.274,-0.173 -0.432,-0.295 -0.59,-0.414l2.11,-3.396l0,0Z" style="fill:#fff;fill-rule:nonzero;"/><path d="M373.007,92.959l-3.174,-2.472l-11.426,8.818l2.537,1.973l2.581,-2.113l2.537,1.973l-1.344,3.079l2.593,2.018l5.696,-13.276l0,0Zm-7.717,4.531l2.206,-1.834c0.614,-0.53 1.583,-1.404 2.241,-1.967l0.03,0.024c-0.375,0.784 -0.951,1.916 -1.314,2.686l-1.226,2.599l-1.937,-1.508l0,0Z" style="fill:#fff;fill-rule:nonzero;"/><path d="M383.602,112.176c1.272,0.525 2.897,0.31 4.033,-0.882c2.638,-2.775 0.149,-5.452 -1.193,-6.743c-1.04,-1.001 -2.101,-1.851 -2.918,-2.408l-9.488,9.977l2.277,2.191l3.747,-3.941l0.441,0.426c0.769,0.74 0.808,1.407 -0.14,2.85c-0.912,1.404 -1.511,2.558 -1.654,2.972l2.367,2.28c0.179,-0.581 1.174,-2.206 1.946,-3.541c0.689,-1.195 0.96,-2.188 0.534,-3.127l0.048,-0.054l0,0Zm-1.923,-3.508l2.602,-2.734c0.167,0.084 0.441,0.296 0.805,0.647c0.534,0.516 1.169,1.553 0.072,2.704c-0.784,0.826 -1.917,0.888 -2.88,-0.039l-0.599,-0.578l0,0Z" style="fill:#fff;fill-rule:nonzero;"/><path d="M402.295,122.282c-0.191,-0.719 -0.644,-1.691 -1.518,-2.707c-2.107,-2.453 -4.689,-2.602 -6.474,-1.049c-1.252,1.091 -1.544,2.855 -0.87,5.192c0.453,1.524 0.509,2.311 -0.132,2.868c-0.626,0.546 -1.484,0.432 -2.358,-0.584c-0.73,-0.85 -1.237,-1.965 -1.433,-2.775l-2.37,1.341c0.152,0.73 0.787,2.024 1.705,3.094c2.203,2.564 4.826,2.844 6.746,1.172c1.308,-1.136 1.744,-2.737 1.043,-5.077c-0.522,-1.797 -0.611,-2.486 -0.027,-2.996c0.519,-0.45 1.356,-0.387 2.158,0.543c0.731,0.852 1.026,1.696 1.166,2.245l2.364,-1.267l0,0Z" style="fill:#fff;fill-rule:nonzero;"/><path d="M404.775,143.681l-2.749,-3.878l2.639,-1.895l2.456,3.466l2.113,-1.514l-2.459,-3.467l2.271,-1.633l2.597,3.66l2.155,-1.547l-4.436,-6.257l-11.333,8.138l4.594,6.475l2.152,-1.548l0,0Z" style="fill:#fff;fill-rule:nonzero;"/><path d="M416.812,155.769c1.076,0.862 2.694,1.112 4.116,0.289c3.306,-1.92 1.661,-5.19 0.734,-6.808c-0.719,-1.255 -1.503,-2.37 -2.129,-3.136l-11.888,6.898l1.574,2.748l4.695,-2.724l0.307,0.533c0.531,0.927 0.385,1.577 -0.93,2.695c-1.267,1.091 -2.164,2.03 -2.417,2.385l1.636,2.858c0.334,-0.506 1.744,-1.785 2.859,-2.852c0.993,-0.951 1.529,-1.828 1.38,-2.85l0.063,-0.036Zm-0.868,-3.911l3.261,-1.893c0.134,0.131 0.337,0.412 0.591,0.85c0.366,0.644 0.688,1.818 -0.686,2.614c-0.984,0.572 -2.087,0.313 -2.751,-0.85l-0.415,-0.721l0,0Z" style="fill:#fff;fill-rule:nonzero;"/></g><g><path d="M214.522,448.505c-0.718,0.086 -1.511,0.101 -2.48,-0.107c-1.41,-0.304 -2.465,-1.234 -2.176,-2.934l5.863,1.261c0.114,-0.271 0.209,-0.641 0.292,-1.031c0.677,-3.19 -0.509,-5.226 -2.888,-5.735c-2.871,-0.617 -5.011,1.478 -5.613,4.313c-0.65,3.067 0.668,5.354 3.699,6.004c1.213,0.262 2.403,0.295 3.288,0.116l0.015,-1.887l0,0Zm-4.269,-4.868c0.278,-0.96 1.085,-2.158 2.334,-1.887c1.285,0.277 1.422,1.622 1.187,2.644l-3.521,-0.757l0,0Z" style="fill:#fff;fill-rule:nonzero;"/><path d="M233.06,447.211c0.322,-2.808 -0.945,-4.25 -2.769,-4.465c-1.449,-0.167 -2.528,0.545 -3.061,1.231l-0.054,-0.006l0.03,-1.362l-2.29,-0.269c-0.065,0.889 -0.14,1.846 -0.274,3.017l-0.805,7.002l2.65,0.307l0.683,-5.958c0.176,-1.53 1.225,-1.974 1.941,-1.89c1.126,0.131 1.41,1.147 1.266,2.372l-0.67,5.852l2.647,0.307l0.706,-6.138l0,0Z" style="fill:#fff;fill-rule:nonzero;"/><path d="M242.063,453.993l2.647,0.039l0.08,-5.22c0.268,0.06 0.593,0.083 0.972,0.089c2.069,0.03 5.252,-0.772 5.309,-4.596c0.021,-1.285 -0.468,-2.418 -1.285,-3.136c-0.87,-0.775 -2.182,-1.139 -3.929,-1.166c-1.529,-0.023 -2.718,0.084 -3.586,0.236l-0.208,13.754l0,0Zm2.825,-11.813c0.236,-0.051 0.615,-0.099 1.154,-0.09c1.479,0.021 2.403,0.817 2.379,2.301c-0.021,1.506 -1.008,2.433 -2.665,2.406c-0.397,-0.006 -0.683,-0.027 -0.936,-0.087l0.068,-4.53l0,0Z" style="fill:#fff;fill-rule:nonzero;"/><path d="M261.856,440.778c-0.051,-0.831 -0.665,-1.392 -1.529,-1.335c-0.826,0.054 -1.381,0.689 -1.327,1.52c0.051,0.814 0.665,1.392 1.511,1.336c0.826,-0.051 1.401,-0.653 1.345,-1.521l0,0Zm0.086,2.755l-2.659,0.173l0.644,10.072l2.662,-0.17l-0.647,-10.075Z" style="fill:#fff;fill-rule:nonzero;"/><path d="M271.243,442.612l-1.303,0.179l0.265,1.958l1.303,-0.179l0.623,4.615c0.149,1.114 0.539,3.604 3.395,3.213c0.766,-0.107 1.398,-0.283 1.735,-0.477l-0.31,-2.024c-0.259,0.092 -0.468,0.155 -0.844,0.209c-0.801,0.107 -1.246,-0.343 -1.407,-1.547l-0.587,-4.347l2.194,-0.298l-0.265,-1.958l-2.194,0.301l-0.352,-2.605l-2.501,1.129l0.248,1.831Z" style="fill:#fff;fill-rule:nonzero;"/><path d="M293.516,446.475l-4.889,1.097l-0.006,-0.036l0.865,-1.347c1.496,-2.397 2.665,-4.701 2.14,-7.071c-0.48,-2.176 -2.185,-3.705 -5.035,-3.067c-1.529,0.343 -2.772,1.216 -3.458,2.039l1.136,1.714c0.513,-0.599 1.297,-1.312 2.263,-1.529c1.457,-0.328 2.289,0.506 2.548,1.675c0.4,1.803 -0.697,3.851 -2.629,7.032l-1.124,1.925l0.355,1.61l8.314,-1.866l-0.48,-2.176l0,0Z" style="fill:#fff;fill-rule:nonzero;"/></g><ellipse cx="249.533" cy="250.424" rx="162.676" ry="163.01" style="fill:#fff;"/><g><g opacity="0.25"><path id="うさぎ" d="M238.468,194.068c0,0 2.074,-1.711 1.377,-4.719c-1.055,-4.558 -12.386,-23.248 -21.725,-32.447c-0.224,-0.221 -15.235,-12.991 -11.727,-53.102c0,0 16.27,5.062 25.803,19.644c0,0 19.134,31.112 20.371,37.643c0,0 -1.669,-17.73 4.999,-37.643c0,0 7.315,-26.667 13.384,-30.408c0,0 22.336,15.993 8.195,75.166c0,0 -3.255,13.984 0,25.272c0,0 20.69,36.057 11.822,69.849c0,0 27.964,29.233 3.073,96.784c0,0 11.316,18.025 9.662,26.115c0,0 -19.46,2.23 -24.557,-7.285c0,0 -11.608,2.665 -16.043,0c0,0 -9.763,13.074 -14.142,12.937c0,0 -4.343,-7.736 -4.614,-14.553c0,0 -12.219,2.185 -18.359,0c0,0 -5.667,12.77 -8.538,14.553c0,0 -9.509,-8.508 -11.056,-14.553c0,0 -5.872,12.198 -21.65,10.556c0,0 -3.929,-6.09 1.896,-19.299c0,0 -15.277,-3.741 -15.662,-21.462c0,0 -10.454,-5.065 0,-17.737c0,0 5.255,-35.478 42.88,-70.385c0,0 -11.235,-6.629 -15.116,-18.699c0,0 -9.658,-19.367 39.727,-46.227l0,0Z" style="fill:#96d946;"/><g><path d="M257.927,167.147l86.213,23.567l-86.213,23.567l-86.214,-23.567l86.214,-23.567l0,0Z" style="fill:#96d946;"/><clipPath id="_clip1"><path d="M257.927,167.147l86.213,23.567l-86.213,23.567l-86.214,-23.567l86.214,-23.567l0,0Z"/></clipPath><g clip-path="url(#_clip1)"><path d="M259.247,187.271l50.822,12.955" style="fill:#96d946;stroke:#fff;stroke-width:1.25px;"/></g><ellipse cx="255.65" cy="186.529" rx="3.711" ry="1.699" style="fill:#96d946;stroke:#fff;stroke-width:1.25px;stroke-linecap:round;"/><clipPath id="_clip2"><path d="M344.14,185.733l86.217,36.486l-86.217,36.486l-86.213,-36.486l86.213,-36.486Z"/></clipPath><g clip-path="url(#_clip2)"><rect x="308.668" y="199.803" width="2.036" height="56.479" style="fill:#96d946;"/></g><clipPath id="_clip3"><path d="M309.64,242.704l9.515,13.599l-21.505,-2.132l11.99,-11.467Z"/></clipPath><g clip-path="url(#_clip3)"><path d="M321.11,250.469l-1.687,-1.437l-9.593,11.307l1.685,1.437l9.595,-11.307Zm-3.279,-2.352l-1.687,-1.437l-9.593,11.304l1.685,1.437l9.595,-11.304Zm-3.628,-1.675l-1.684,-1.437l-9.595,11.307l1.687,1.436l9.592,-11.306Zm-3.499,-1.887l-1.685,-1.437l-9.595,11.304l1.687,1.437l9.593,-11.304Z" style="fill:#96d946;"/></g></g></g></g></svg>