<?xml version="1.0" encoding="UTF-8" standalone="no"?><!DOCTYPE svg PUBLIC "-//W3C//DTD SVG 1.1//EN" "http://www.w3.org/Graphics/SVG/1.1/DTD/svg11.dtd"><svg width="100%" height="100%" viewBox="0 0 500 80" version="1.1" xmlns="http://www.w3.org/2000/svg" xmlns:xlink="http://www.w3.org/1999/xlink" xml:space="preserve" style="fill-rule:evenodd;clip-rule:evenodd;stroke-linejoin:round;stroke-miterlimit:1.41421;"><g id="Normal"><g><path id="Base" d="M492.549,17.232c0,-3.591 -2.915,-6.506 -6.505,-6.506l-472.088,0c-3.59,0 -6.505,2.915 -6.505,6.506l0,45.536c0,3.591 2.915,6.506 6.505,6.506l472.088,0c3.59,0 6.505,-2.915 6.505,-6.506l0,-45.536Z" style="fill:#6fda31;"/><g><text id="Normal1" x="149.317px" y="47.092px" style="font-family:'KozGoPro-Bold', 'Kozuka Gothic Pro', sans-serif;font-weight:700;font-size:22px;fill:#fff;">こ<tspan x="173.918px 198.518px 223.119px 247.72px 272.321px 296.922px 321.523px 345.696px " y="47.092px 47.092px 47.092px 47.092px 47.092px 47.092px 47.092px 47.092px ">の授業を履修する</tspan></text><path id="Checked-Circle-Icon" d="M130.056,50.672c-6.351,0 -11.5,-5.148 -11.5,-11.5c0,-6.351 5.149,-11.5 11.5,-11.5c6.352,0 11.5,5.149 11.5,11.5c0,6.352 -5.148,11.5 -11.5,11.5Zm6.057,-15.586c-0.589,-0.565 -1.543,-0.565 -2.132,0l-5.361,5.091l-1.531,-1.424c-0.589,-0.564 -1.543,-0.564 -2.132,0c-0.589,0.565 -0.589,1.481 0,2.045l2.597,2.447c0.589,0.565 1.544,0.565 2.132,0l6.427,-6.113c0.589,-0.564 0.589,-1.481 0,-2.046Z" style="fill:#fff;"/></g></g></g></svg>