<?xml version="1.0" encoding="UTF-8" standalone="no"?><!DOCTYPE svg PUBLIC "-//W3C//DTD SVG 1.1//EN" "http://www.w3.org/Graphics/SVG/1.1/DTD/svg11.dtd"><svg width="100%" height="100%" viewBox="0 0 300 296" version="1.1" xmlns="http://www.w3.org/2000/svg" xmlns:xlink="http://www.w3.org/1999/xlink" xml:space="preserve" style="fill-rule:evenodd;clip-rule:evenodd;stroke-linejoin:round;stroke-miterlimit:1.41421;"><path d="M359.521,-25.487l0,347.672l-391.921,0l0,-347.672l391.921,0Zm-159.133,132.048l-22.618,6.128c5.262,13.406 11.197,35.106 5.681,55.936c0,0 27.925,28.936 3.071,95.791c0,0 11.299,19.478 9.645,27.487c0,0 -19.433,0.569 -24.521,-8.848c0,0 -11.593,2.637 -16.02,0c0,0 -9.75,12.939 -14.125,12.802c0,0 -4.335,-7.653 -4.607,-14.401c0,0 -12.202,2.161 -18.334,0c0,0 -5.659,12.637 -8.525,14.401c0,0 -9.495,-8.42 -11.041,-14.401c0,0 -5.864,12.072 -21.62,10.447c0,0 -3.924,-6.029 1.893,-19.101c0,0 -15.256,-3.703 -15.64,-21.243c0,0 -10.44,-5.014 0,-17.553c0,0 5.249,-35.115 42.822,-69.663c0,0 -11.222,-6.561 -15.096,-18.509c0,0 -7.246,-14.399 22.932,-35.545l-49.923,-13.526l59.932,-16.237c-4.063,-6.173 -9.06,-12.808 -13.589,-17.228c-0.223,-0.219 -15.216,-12.858 -11.711,-52.558c0,0 16.247,5.009 25.768,19.442c0,0 19.108,30.792 20.343,37.258c0,0 -1.667,-17.55 4.992,-37.258c0,0 7.304,-26.392 13.366,-30.096c0,0 22.305,15.829 8.183,74.395c0,0 -0.409,1.74 -0.791,4.483l65.697,17.799l-32.932,8.922l0,44.3l-11.225,15.282l-3.538,-0.381l11.531,-15.685l0,-42.64Zm10.69,60.869l1.863,-2.531l-1.72,-2.851l-3.66,4.959l3.517,0.423Zm-9.909,-1.151l3.523,0.409l5.113,-6.966l-1.727,-2.846l-6.909,9.403Zm-6.106,-0.661l3.548,0.411l8.246,-11.235l-1.719,-2.828l-10.075,13.652Z" style="fill:#fff;"/></svg>