<?xml version="1.0" encoding="UTF-8" standalone="no"?><!DOCTYPE svg PUBLIC "-//W3C//DTD SVG 1.1//EN" "http://www.w3.org/Graphics/SVG/1.1/DTD/svg11.dtd"><svg width="100%" height="100%" viewBox="0 0 139 303" version="1.1" xmlns="http://www.w3.org/2000/svg" xmlns:xlink="http://www.w3.org/1999/xlink" xml:space="preserve" style="fill-rule:evenodd;clip-rule:evenodd;stroke-linejoin:round;stroke-miterlimit:1.41421;"><g><g><g><rect x="0.098" y="290.501" width="74.247" height="3.696" style="fill:#444;"/><rect x="0.098" y="11.236" width="74.247" height="3.696" style="fill:#444;"/><rect x="10.517" y="148.907" width="52.761" height="3.696" style="fill:#444;"/><rect x="23.242" y="175.187" width="28.305" height="3.696" style="fill:#444;"/><rect x="23.242" y="37.625" width="28.305" height="3.696" style="fill:#444;"/><rect x="23.242" y="202.406" width="28.305" height="3.696" style="fill:#444;"/><rect x="23.242" y="64.844" width="28.305" height="3.696" style="fill:#444;"/><rect x="23.242" y="229.772" width="28.305" height="3.696" style="fill:#444;"/><rect x="23.242" y="92.21" width="28.305" height="3.696" style="fill:#444;"/><rect x="23.242" y="259.399" width="28.305" height="3.696" style="fill:#444;"/><rect x="23.242" y="121.837" width="28.305" height="3.696" style="fill:#444;"/></g><path d="M39.101,292.764l0,-280.267l-3.758,0l0,280.267l3.758,0Z" style="fill:#444;"/></g><g transform="matrix(0.99226,0,0,0.975975,-1095.37,-695.293)"><text x="1190.29px" y="731.952px" style="font-family:'KozGoPro-Bold', 'Kozuka Gothic Pro', sans-serif;font-weight:700;font-size:20px;fill:none;">1<tspan x="1201.93px 1213.57px 1225.21px " y="731.952px 731.952px 731.952px ">00%</tspan></text><text x="1190.29px" y="731.952px" style="font-family:'KozGoPro-Bold', 'Kozuka Gothic Pro', sans-serif;font-weight:700;font-size:20px;fill:#444;">1<tspan x="1201.93px 1213.57px 1225.21px " y="731.952px 731.952px 731.952px ">00%</tspan></text></g><g transform="matrix(0.99226,0,0,0.975975,-1095.37,-557.015)"><text x="1190.29px" y="731.952px" style="font-family:'KozGoPro-Bold', 'Kozuka Gothic Pro', sans-serif;font-weight:700;font-size:20px;fill:none;">5<tspan x="1201.93px 1213.57px " y="731.952px 731.952px ">0%</tspan></text><text x="1190.29px" y="731.952px" style="font-family:'KozGoPro-Bold', 'Kozuka Gothic Pro', sans-serif;font-weight:700;font-size:20px;fill:#444;">5<tspan x="1201.93px 1213.57px " y="731.952px 731.952px ">0%</tspan></text></g><g transform="matrix(0.99226,0,0,0.975975,-1095.37,-416.175)"><text x="1190.29px" y="731.952px" style="font-family:'KozGoPro-Bold', 'Kozuka Gothic Pro', sans-serif;font-weight:700;font-size:20px;fill:none;">0<tspan x="1201.93px " y="731.952px ">%</tspan></text><text x="1190.29px" y="731.952px" style="font-family:'KozGoPro-Bold', 'Kozuka Gothic Pro', sans-serif;font-weight:700;font-size:20px;fill:#444;">0<tspan x="1201.93px " y="731.952px ">%</tspan></text></g></g></svg>