<?xml version="1.0" encoding="UTF-8" standalone="no"?><!DOCTYPE svg PUBLIC "-//W3C//DTD SVG 1.1//EN" "http://www.w3.org/Graphics/SVG/1.1/DTD/svg11.dtd"><svg width="100%" height="100%" viewBox="0 0 550 370" version="1.1" xmlns="http://www.w3.org/2000/svg" xmlns:xlink="http://www.w3.org/1999/xlink" xml:space="preserve" style="fill-rule:evenodd;clip-rule:evenodd;stroke-linecap:square;stroke-linejoin:round;stroke-miterlimit:1.5;"><g id="Filler-Text"><path d="M19.202,321.096c-0.72,6.72 -2.4,10.56 -7.68,12.405c0.24,0.21 0.585,0.6 0.735,0.825c2.34,-0.9 4.005,-2.145 5.205,-3.825c1.275,1.275 2.73,2.82 3.48,3.81l0.885,-0.75c-0.84,-1.035 -2.46,-2.67 -3.795,-3.96c1.17,-2.085 1.8,-4.74 2.205,-8.085c0.21,-0.015 0.315,-0.075 0.345,-0.21l-1.38,-0.21Zm-8.625,0.33c0.195,-0.03 0.285,-0.105 0.3,-0.21c-0.3,-0.015 -0.6,-0.03 -1.365,-0.09l0.195,9.69c-0.765,0.225 -1.455,0.42 -2.025,0.57l0.48,1.185c0.105,-0.03 0.195,-0.12 0.195,-0.24c1.485,-0.45 3.84,-1.215 6.045,-1.935l-0.15,-0.945c-1.17,0.36 -2.37,0.72 -3.48,1.05l-0.195,-9.075Zm2.19,1.08c0.99,1.11 1.98,2.67 2.355,3.72l0.975,-0.51c-0.42,-1.05 -1.41,-2.55 -2.43,-3.645l-0.9,0.435Z" style="fill:#54657e;fill-rule:nonzero;"/><path d="M37.967,321.456l-13.515,0l0,1.005l5.925,0l0,11.79l1.065,0l0,-8.145c1.8,0.96 3.9,2.235 4.98,3.105l0.705,-0.9c-1.245,-0.96 -3.705,-2.355 -5.61,-3.285l-0.075,0.09l0,-2.61l0.165,-0.045l6.36,0l0,-1.005Z" style="fill:#54657e;fill-rule:nonzero;"/><path d="M47.507,322.806c0.135,-0.015 0.3,-0.03 0.45,-0.03c3.51,0 5.1,2.25 5.1,4.725c0,2.835 -1.77,4.515 -5.22,5.175c0.24,0.27 0.495,0.675 0.63,0.915c3.63,-0.84 5.7,-2.565 5.7,-6.135c0,-2.925 -1.875,-5.67 -6.21,-5.67c-3.945,0 -6.75,3.015 -6.75,6.615c0,2.37 1.14,3.63 2.4,3.63c2.49,0 4.05,-4.065 4.59,-8.73c0.195,0 0.315,-0.105 0.375,-0.24l-1.065,-0.255Zm-3.87,8.175c-0.72,0 -1.41,-1.005 -1.41,-2.61c0,-2.625 1.875,-5.13 4.905,-5.505c-0.375,4.11 -1.68,8.115 -3.495,8.115Z" style="fill:#54657e;fill-rule:nonzero;"/><path d="M69.677,323.796l0,2.415l0.99,0l0,-3.33l-2.445,0c0.525,-0.6 1.065,-1.305 1.44,-1.845c0.15,0.015 0.27,-0.03 0.315,-0.12c-0.12,-0.075 -0.24,-0.15 -1.185,-0.495c-0.405,0.72 -1.14,1.77 -1.725,2.46l-2.625,0l0.525,-0.225c-0.195,-0.645 -0.735,-1.65 -1.275,-2.4l-0.87,0.33c0.465,0.69 0.96,1.62 1.185,2.295l-3.18,0l0.435,-0.225c-0.27,-0.6 -0.915,-1.485 -1.515,-2.145l-0.84,0.405c0.495,0.585 1.05,1.38 1.335,1.965l-2.34,0l0,3.33l0.96,0l0,-2.415l10.815,0Zm-4.965,5.385l0,-0.54c1.335,-0.66 2.76,-1.635 3.645,-2.475c0.09,-0.015 0.18,-0.06 0.225,-0.135l-0.78,-0.495l-0.18,0.06l-7.59,0l0,0.9l6.525,0c-0.615,0.51 -1.41,1.035 -2.175,1.425l-0.705,-0.045l0,1.305l-6.15,0l0,0.945l6.15,0l0,2.91c0,0.33 -0.105,0.33 -0.975,0.33c-0.48,0 -1.155,-0.015 -1.92,-0.045c0.165,0.285 0.36,0.705 0.435,0.99c2.775,0 3.495,-0.015 3.495,-1.275l0,-2.91l6.225,0l0,-0.945l-6.225,0Z" style="fill:#54657e;fill-rule:nonzero;"/><path d="M80.927,331.401l6.21,0l0,-7.89l-3.21,0c0.18,-0.51 0.345,-1.095 0.45,-1.545l3.3,0l0,-0.9l-7.275,0l0,0.9l2.94,0c-0.105,0.495 -0.24,1.065 -0.375,1.545l-2.04,0l0,7.89Zm0.93,-3.18l0,-1.56l4.32,0l0,1.56l-4.32,0Zm0,-2.34l0,-1.56l4.32,0l0,1.56l-4.32,0Zm0,4.71l0,-1.59l4.32,0l0,1.59l-4.32,0Zm-2.865,-7.68c0.33,-0.465 0.72,-1.17 0.96,-1.65c0.15,0 0.255,-0.03 0.3,-0.12l-1.035,-0.39c-0.195,0.54 -0.585,1.35 -0.9,1.86l0.675,0.3Zm-1.425,4.305l0,-2.145c0.765,0.54 1.83,1.365 2.25,1.74l0.555,-0.735c-0.42,-0.33 -2.19,-1.485 -2.805,-1.845l0,-0.21l2.73,0l0,-0.84l-2.73,0l0,-2.565c0.195,-0.03 0.27,-0.105 0.285,-0.195l-1.185,-0.075l0,2.835l-2.76,0l0,0.84l2.415,0c-0.66,1.005 -1.695,2.01 -2.64,2.505c0.195,0.165 0.465,0.48 0.6,0.675c0.825,-0.495 1.71,-1.395 2.385,-2.355l0,2.37l0.9,0Zm2.79,2.61l0,-0.9l-2.79,0l0,-1.095c0.195,-0.03 0.27,-0.105 0.285,-0.21l-1.215,-0.075l0,1.38l-2.745,0l0,0.9l2.715,0c-0.135,1.17 -0.705,2.415 -2.91,3.405c0.18,0.18 0.435,0.54 0.555,0.765c1.62,-0.735 2.46,-1.635 2.895,-2.565c0.855,0.63 1.785,1.38 2.28,1.875l0.675,-0.69c-0.615,-0.54 -1.74,-1.41 -2.67,-2.055c0.045,-0.24 0.09,-0.495 0.105,-0.735l2.82,0Zm-6.12,-8.745c0.39,0.555 0.75,1.305 0.885,1.8l0.765,-0.33c-0.135,-0.48 -0.51,-1.215 -0.915,-1.74l-0.735,0.27Zm8.1,10.65c-0.6,0.66 -1.86,1.44 -2.985,1.875c0.225,0.165 0.525,0.48 0.675,0.675c1.125,-0.45 2.415,-1.26 3.015,-1.92c0.135,-0.015 0.225,-0.06 0.27,-0.12l-0.975,-0.51Zm2.25,0.57c0.9,0.585 2.04,1.425 2.58,1.98c0.615,-0.435 0.705,-0.495 0.795,-0.555c-0.6,-0.57 -1.74,-1.395 -2.625,-1.935l-0.75,0.51Z" style="fill:#54657e;fill-rule:nonzero;"/><path d="M100.532,329.751l0,-0.975c0.195,-0.03 0.27,-0.105 0.285,-0.21l-1.02,-0.045l0,-0.015l2.7,0l0,-4.935l-4.815,0l0,-1.11l6.045,0l0,-0.87l-6.045,0l0,-0.945c0.195,-0.03 0.27,-0.105 0.285,-0.21l-1.29,-0.09l0,1.245l-5.925,0l0,0.87l5.925,0l0,1.11l-4.665,0l0,4.935l7.53,0l0,1.245l-9.135,0l0,0.885l9.135,0l0,2.46c0,0.3 -0.105,0.3 -0.975,0.3c-0.42,0 -0.99,-0.015 -1.605,-0.03c0.135,0.27 0.285,0.63 0.33,0.9c1.335,0 2.16,0 2.625,-0.15c0.48,-0.15 0.615,-0.42 0.615,-1.005l0,-2.475l3.48,0l0,-0.885l-3.48,0Zm-3.855,-5.415l0,1.32l-3.705,0l0,-1.32l3.705,0Zm4.83,1.32l-3.825,0l0,-1.32l3.825,0l0,1.32Zm-4.83,0.735l0,1.35l-3.705,0l0,-1.35l3.705,0Zm1.005,1.35l0,-1.35l3.825,0l0,1.35l-3.825,0Zm-1.725,5.205c-0.51,-0.63 -1.56,-1.5 -2.46,-2.085l-0.75,0.555c0.9,0.615 1.935,1.53 2.415,2.16l0.795,-0.63Z" style="fill:#54657e;fill-rule:nonzero;"/><path d="M120.677,323.196l-6.075,0c0.27,-0.78 0.495,-1.59 0.69,-2.4c0.195,0 0.3,-0.045 0.33,-0.165l-1.29,-0.3c-0.585,2.67 -1.605,5.31 -2.91,6.81c0.255,0.15 0.645,0.435 0.84,0.6c0.48,-0.57 0.93,-1.29 1.32,-2.085c0.48,1.755 1.11,3.33 1.935,4.65c-1.155,1.365 -2.655,2.385 -4.62,3.09c0.18,0.21 0.435,0.645 0.54,0.9c1.965,-0.765 3.495,-1.77 4.68,-3.12c1.035,1.365 2.325,2.415 3.945,3.09c0.165,-0.27 0.48,-0.675 0.72,-0.885c-1.65,-0.63 -2.97,-1.68 -3.99,-3.045c1.17,-1.62 1.935,-3.66 2.46,-6.165l1.425,0l0,-0.975Zm-10.65,0.03l2.445,0l0,-0.975l-5.7,0l0,0.975l2.25,0l0,6.615c-0.9,0.225 -1.71,0.435 -2.355,0.585l0.495,1.155c0.09,-0.03 0.165,-0.12 0.18,-0.24c1.32,-0.345 3.405,-0.945 5.355,-1.53l-0.105,-0.885c-0.855,0.225 -1.725,0.45 -2.565,0.66l0,-6.36Zm8.16,0.945c-0.435,2.115 -1.08,3.84 -2.01,5.265c-0.9,-1.485 -1.545,-3.24 -1.965,-5.19l0.03,-0.075l3.945,0Z" style="fill:#54657e;fill-rule:nonzero;"/><path d="M124.052,323.676c0.12,-0.015 0.285,-0.12 0.33,-0.24c1.935,-0.18 6.36,-0.51 8.01,-0.63c-2.745,1.725 -4.83,4.29 -4.83,6.405c0,2.67 1.59,4.26 5.85,4.875l0.495,-1.05c-3.72,-0.48 -5.19,-1.725 -5.19,-3.825c0,-1.935 2.175,-4.35 4.425,-5.7c0.96,-0.615 1.695,-0.765 2.565,-0.765c0.18,0 0.36,0 0.555,0.015l-0.015,-1.125c-1.95,0.015 -11.19,0.675 -12.315,0.72l0.12,1.32Zm10.71,0.765c0.705,0.54 1.575,1.47 1.98,2.07l0.57,-0.45c-0.435,-0.66 -1.305,-1.53 -2.04,-2.07l-0.51,0.45Zm-1.62,1.32c0.645,0.495 1.56,1.425 1.98,2.085l0.57,-0.465c-0.465,-0.645 -1.32,-1.53 -2.04,-2.07l-0.51,0.45Z" style="fill:#54657e;fill-rule:nonzero;"/><path d="M150.302,328.356l-4.95,0c0.255,-0.27 0.48,-0.525 0.69,-0.78c0.195,0 0.3,-0.075 0.33,-0.18l-1.29,-0.225c-0.855,1.215 -2.535,2.55 -4.875,3.48c0.225,0.165 0.525,0.51 0.66,0.75c1.035,-0.465 1.95,-0.99 2.715,-1.53c0.6,0.795 1.35,1.485 2.22,2.07c-1.755,0.735 -3.825,1.215 -5.955,1.47c0.195,0.21 0.435,0.645 0.51,0.9c2.295,-0.345 4.515,-0.915 6.39,-1.8c1.74,0.93 3.885,1.53 6.33,1.8c0.135,-0.285 0.375,-0.72 0.6,-0.945c-2.235,-0.21 -4.245,-0.675 -5.895,-1.41c1.335,-0.78 2.445,-1.785 3.225,-3.045c0.09,-0.03 0.18,-0.075 0.21,-0.15l-0.735,-0.45l-0.18,0.045Zm-0.705,0.84c-0.69,0.915 -1.665,1.665 -2.805,2.265c-1.035,-0.585 -1.89,-1.29 -2.505,-2.13l0.165,-0.135l5.145,0Zm-1.365,-6.36l0,3.45c0,0.18 -0.045,0.225 -0.255,0.24c-0.21,0 -0.885,0 -1.68,-0.015c0.12,0.27 0.24,0.63 0.285,0.9c2.205,0 2.625,-0.03 2.625,-1.11l0,-3.465l4.17,0l0,-0.945l-6.165,0l0,-1.275c0.195,-0.015 0.27,-0.09 0.285,-0.195l-1.32,-0.09l0,1.56l-6.105,0l0,0.945l4.95,0l0,0.09c0,1.29 -0.195,3.06 -2.445,4.365c0.225,0.165 0.57,0.48 0.72,0.69c2.58,-1.545 2.685,-3.69 2.685,-5.145l2.25,0Zm5.4,3.735c-0.555,-0.84 -1.77,-2.085 -2.775,-2.97l-0.795,0.465c1.02,0.915 2.19,2.205 2.73,3.045l0.84,-0.54Zm-11.19,-2.895c-0.48,0.96 -1.56,2.055 -2.625,2.7c0.195,0.15 0.525,0.42 0.705,0.6c1.095,-0.72 2.235,-1.89 2.79,-2.805c0.15,0 0.255,-0.06 0.3,-0.15l-1.17,-0.345Z" style="fill:#54657e;fill-rule:nonzero;"/><path d="M168.857,323.406l-5.085,0l0,-1.32l6.03,0l0,-0.93l-13.215,0l0,0.93l6.165,0l0,1.32l-4.755,0l0,5.64l4.635,0c-0.12,0.735 -0.405,1.44 -0.99,2.07c-0.6,-0.495 -1.095,-1.11 -1.515,-1.875l-0.87,0.3c0.45,0.885 1.02,1.605 1.68,2.19c-0.945,0.69 -2.4,1.275 -4.605,1.695c0.21,0.225 0.465,0.645 0.585,0.87c2.265,-0.495 3.795,-1.155 4.83,-1.95c1.905,1.245 4.53,1.725 8.055,1.965c0.06,-0.33 0.27,-0.75 0.465,-0.975c-3.45,-0.18 -6,-0.555 -7.815,-1.65c0.72,-0.795 1.065,-1.695 1.215,-2.64l5.19,0l0,-5.64Zm-6.105,0.81l0,1.605l-3.78,0l0,-1.605l3.78,0Zm5.1,1.605l-4.08,0l0,-1.605l4.08,0l0,1.605Zm-8.88,0.78l3.78,0l0,0.81c0,0.285 0,0.555 -0.015,0.825l-3.765,0l0,-1.635Zm4.785,1.635c0.015,-0.27 0.015,-0.54 0.015,-0.81l0,-0.825l4.08,0l0,1.635l-4.095,0Z" style="fill:#54657e;fill-rule:nonzero;"/><path d="M183.752,320.421c0.66,0.495 1.56,1.455 1.98,2.1l0.585,-0.435c-0.435,-0.645 -1.29,-1.545 -2.025,-2.085l-0.54,0.42Zm-2.28,0.6c0.66,0.495 1.56,1.44 1.98,2.085l0.585,-0.42c-0.435,-0.645 -1.29,-1.545 -2.01,-2.1l-0.555,0.435Zm-4.485,-0.18c-0.18,1.32 -0.42,2.67 -0.645,3.765c-1.005,0.12 -2.235,0.255 -2.97,0.345l0.09,1.05c0.81,-0.135 1.905,-0.27 2.67,-0.36c-0.705,2.85 -1.53,5.175 -2.985,7.5l0.99,0.48c1.44,-2.415 2.325,-5.04 3.075,-8.1c0.765,-0.09 1.38,-0.15 1.83,-0.15c1.5,-0.015 2.055,1.005 2.07,2.715c0,0.765 -0.165,2.145 -0.48,3.075c-0.3,0.96 -0.81,1.5 -1.665,1.5c-0.465,0 -1.095,-0.21 -2.295,-1.14c-0.12,0.315 -0.24,0.645 -0.405,0.915c1.29,1.05 2.1,1.305 2.715,1.305c1.245,0 2.205,-0.735 2.67,-2.265c0.3,-0.9 0.51,-2.235 0.51,-3.36c0,-2.25 -0.78,-3.765 -3.06,-3.735c-0.375,0 -0.99,0.06 -1.665,0.135c0.18,-0.9 0.45,-2.355 0.615,-3.195c0.285,-0.015 0.465,-0.09 0.495,-0.27l-1.56,-0.21Zm9.48,8.07c-0.495,-2.175 -1.785,-4.05 -3.27,-5.295l-0.87,0.585c1.38,1.14 2.565,2.955 3.06,5.115l1.08,-0.405Z" style="fill:#54657e;fill-rule:nonzero;"/><path d="M198.017,327.276c0,0.705 0.075,1.68 0.135,2.64c-0.6,-0.165 -1.155,-0.27 -1.695,-0.27c-1.38,0 -2.955,0.72 -2.955,2.22c-0.015,1.41 1.26,2.16 2.925,2.16c2.205,0 2.805,-1.17 2.805,-2.67c0.81,0.36 1.83,0.945 2.655,1.575l0.54,-0.96c-0.99,-0.72 -2.235,-1.365 -3.195,-1.74c-0.09,-1.035 -0.18,-1.86 -0.195,-3.075l-1.02,0.12Zm0.21,4.32c0,0.99 -0.69,1.515 -1.77,1.515c-1.17,0 -2.01,-0.405 -2.01,-1.26c0.015,-0.93 1.08,-1.29 1.98,-1.29c0.54,0 1.17,0.105 1.785,0.345c0.015,0.225 0.015,0.45 0.015,0.69Zm-4.755,-11.04c-0.105,0.885 -0.24,1.74 -0.42,2.535c-0.435,0 -0.915,0.015 -1.38,0.015l-1.785,0l0,0.975l2.985,0c-0.645,2.73 -1.68,4.98 -3.045,6.945l1.005,0.405c1.47,-2.16 2.46,-4.5 3.18,-7.38c1.725,-0.135 3.375,-0.375 4.77,-0.72l-0.165,-1.02c-1.305,0.39 -2.94,0.645 -4.41,0.735c0.135,-0.585 0.27,-1.365 0.375,-2.025c0.27,-0.015 0.42,-0.135 0.465,-0.255l-1.575,-0.21Zm8.79,4.035c-1.635,0 -3.705,0.315 -5.415,0.81l0.165,0.945c1.56,-0.45 3.615,-0.72 5.31,-0.735l-0.06,-1.02Z" style="fill:#54657e;fill-rule:nonzero;"/><path d="M206.747,322.056c-0.15,1.275 -0.225,2.715 -0.225,4.035c0,0.675 0.015,1.305 0.06,1.875c0.21,2.88 1.53,5.19 3.435,5.16c1.245,-0.03 2.115,-1.68 2.805,-3.705c-0.255,-0.15 -0.66,-0.435 -0.87,-0.645c-0.54,1.68 -1.32,3.21 -1.92,3.21c-1.155,0.015 -2.19,-1.53 -2.37,-4.08c-0.03,-0.48 -0.06,-1.02 -0.06,-1.575c0,-1.26 0.105,-2.61 0.285,-3.735c0.21,-0.015 0.375,-0.105 0.405,-0.24l-1.545,-0.3Zm12.6,6.93c-0.435,-2.775 -2.04,-4.935 -4.23,-6.105l-0.66,0.81c2.025,1.125 3.36,3.015 3.78,5.64l1.11,-0.345Z" style="fill:#54657e;fill-rule:nonzero;"/><path d="M228.122,320.796l0,4.89l6.945,0l0,-4.89l-6.945,0Zm0.915,2.055l0,-1.29l5.085,0l0,1.29l-5.085,0Zm0,2.055l0,-1.305l5.085,0l0,1.305l-5.085,0Zm-3.84,-0.315l1.695,0l0,-0.975l-1.695,0l0,-2.985c0.195,-0.03 0.27,-0.09 0.285,-0.195l-1.245,-0.09l0,3.27l-1.83,0l0,0.975l1.83,0l0,4.965c-0.795,0.345 -1.515,0.645 -2.085,0.87l0.495,1.125c0.09,-0.045 0.165,-0.135 0.165,-0.255c1.05,-0.48 2.7,-1.275 4.245,-2.025c-0.15,-0.705 -0.18,-0.795 -0.21,-0.885l-1.65,0.75l0,-4.545Zm10.965,2.01l-9.6,0l0,0.885l2.235,0c-0.735,1.35 -1.905,2.535 -3.09,3.255c0.195,0.15 0.495,0.435 0.645,0.6c0.75,-0.48 1.485,-1.125 2.115,-1.86l1.62,0c-0.81,1.44 -2.16,2.88 -3.435,3.6c0.24,0.165 0.525,0.435 0.69,0.645c1.395,-0.915 2.865,-2.625 3.66,-4.245l1.59,0c-0.585,1.695 -1.665,3.435 -2.88,4.305c0.27,0.135 0.57,0.39 0.765,0.585c1.245,-1.02 2.385,-3.03 2.955,-4.89l1.35,0c-0.21,2.52 -0.435,3.525 -0.705,3.81c-0.12,0.135 -0.24,0.15 -0.465,0.15c-0.225,0 -0.75,0 -1.335,-0.06c0.135,0.225 0.21,0.585 0.225,0.84c0.3,0.015 0.6,0.03 0.855,0.03c0.78,0 1.155,0 1.515,-0.375c0.405,-0.435 0.645,-1.62 0.9,-4.875l0.06,-0.3l-0.555,-0.09l-0.21,0.015l-5.925,0c0.255,-0.375 0.495,-0.75 0.69,-1.14l6.33,0l0,-0.885Z" style="fill:#54657e;fill-rule:nonzero;"/><path d="M242.102,334.281l0,-0.645l7.23,0l0,0.645l1.02,0l0,-6.075l-9.24,0l0,6.075l0.99,0Zm7.23,-1.56l-7.23,0l0,-3.585l7.23,0l0,3.585Zm-4.2,-12.405c-1.2,2.01 -3.81,4.365 -6.48,5.745c0.21,0.21 0.495,0.57 0.63,0.795c2.625,-1.425 5.145,-3.63 6.39,-5.49c1.44,1.965 4.155,4.125 6.54,5.37c0.165,-0.3 0.42,-0.645 0.66,-0.87c-2.355,-1.095 -5.085,-3.225 -6.57,-5.235c0.165,-0.03 0.27,-0.09 0.315,-0.225l-1.485,-0.09Zm-3.255,5.91l7.68,0l0,-0.915l-7.68,0l0,0.915Z" style="fill:#54657e;fill-rule:nonzero;"/><path d="M260.552,325.566l2.28,0c0.435,0 1.065,-0.015 1.53,-0.045c0.075,1.47 0.165,3.045 0.21,3.99c-0.465,-0.135 -0.96,-0.195 -1.425,-0.195c-1.38,0 -2.925,0.675 -2.925,2.205c0,1.32 1.17,2.16 2.925,2.16c2.25,0 2.49,-1.425 2.505,-2.7c0.93,0.435 1.815,1.095 2.43,1.71l0.585,-0.96c-0.78,-0.705 -1.92,-1.44 -3.06,-1.905c-0.045,-0.96 -0.12,-2.715 -0.18,-4.38c1.275,-0.105 2.31,-0.315 3.03,-0.54l-0.135,-1.05c-0.795,0.27 -1.755,0.48 -2.94,0.6c-0.03,-1.14 -0.06,-2.115 -0.075,-3.075c0.24,-0.045 0.375,-0.165 0.39,-0.315l-1.515,-0.045c0.03,1.11 0.075,2.22 0.135,3.51c-1.26,0.09 -2.52,0.075 -3.78,0.06l0.015,0.975Zm-2.805,7.74c-0.105,-0.285 -0.15,-0.51 -0.15,-0.72c0,-0.705 1.05,-2.985 1.545,-4.005l-0.675,-0.63c-0.315,0.705 -0.915,2.145 -1.245,3.045c-0.12,-0.555 -0.135,-1.695 -0.135,-2.835c0,-1.74 0.33,-4.41 0.87,-6.465c0.21,-0.015 0.36,-0.12 0.39,-0.27l-1.455,-0.285c-0.495,2.505 -0.81,5.01 -0.81,7.005c0,1.965 0.18,4.2 0.645,5.28l1.02,-0.12Zm6.915,-2.295c0,1.2 -0.405,1.74 -1.515,1.74c-1.095,0 -1.995,-0.42 -1.995,-1.26c0,-0.945 1.095,-1.275 2.01,-1.275c0.495,0 1.005,0.12 1.485,0.27l0.015,0.525Z" style="fill:#54657e;fill-rule:nonzero;"/><path d="M281.612,331.176l0,-10.23l4.215,0l0,-0.78l-4.995,0l0,11.01l0.78,0Z" style="fill:#54657e;fill-rule:nonzero;"/><path d="M293.297,321.381c-2.865,0 -4.98,2.265 -4.98,5.985c0,3.57 2.01,5.805 4.845,5.805c2.7,0 4.95,-1.98 4.95,-6c0,-3.45 -1.89,-5.79 -4.815,-5.79Zm-0.06,1.035c2.445,0 3.57,2.52 3.57,4.815c0,2.61 -1.245,4.905 -3.6,4.905c-2.325,0 -3.585,-2.37 -3.585,-4.8c0,-2.43 1.095,-4.92 3.615,-4.92Z" style="fill:#54657e;fill-rule:nonzero;"/><path d="M304.682,326.421l4.02,-4.86l-1.53,0l-3.48,4.35c-0.285,0.375 -0.6,0.795 -0.885,1.23l-0.06,0l0,-5.58l-1.245,0l0,11.43l1.245,0l0,-4.485l1.065,-1.245l3.735,5.73l1.47,0l-4.335,-6.57Z" style="fill:#54657e;fill-rule:nonzero;"/><path d="M315.152,323.256l0,10.215l-4.215,0l0,0.795l4.995,0l0,-11.01l-0.78,0Z" style="fill:#54657e;fill-rule:nonzero;"/><path d="M340.202,325.611c-1.2,0.465 -2.79,1.08 -4.05,1.65c-0.195,-1.215 -0.84,-1.95 -1.86,-1.95c-0.765,0 -1.755,0.39 -2.415,0.975l-0.015,0c0.345,-0.51 0.72,-1.41 1.08,-2.535c1.485,-0.045 3.75,-0.255 5.625,-0.84l-0.18,-1.005c-1.95,0.615 -4.14,0.855 -5.16,0.87c0.135,-0.54 0.27,-1.065 0.375,-1.665c0.225,-0.03 0.345,-0.12 0.375,-0.27l-1.47,-0.18c-0.105,0.81 -0.24,1.455 -0.405,2.145l-1.02,0.015c-0.615,0 -1.68,0 -2.595,-0.015l0,0.975l2.505,0l0.84,-0.015c-0.87,2.955 -2.28,4.215 -3.78,5.535l0.735,0.735c0.645,-0.585 1.23,-1.17 1.65,-1.635c1.35,-1.5 2.49,-2.115 3.585,-2.115c0.6,0 1.02,0.465 1.11,1.41c-2.25,1.125 -3.99,2.4 -3.99,3.72c0,1.53 1.275,2.22 4.155,2.22c1.545,0 2.895,-0.03 3.78,-0.12l-0.015,-1.005c-0.96,0.12 -2.31,0.15 -3.765,0.15c-2.07,0 -3.105,-0.42 -3.105,-1.29c0,-0.9 1.38,-1.905 3.075,-2.73c0.015,0.165 0.015,0.375 0.015,0.6c0,0.585 -0.03,1.275 -0.075,1.815l1.095,-0.06c0.03,-0.585 0.045,-1.125 0.045,-1.605c0,-0.435 -0.015,-0.825 -0.045,-1.17c1.245,-0.54 2.91,-1.155 4.05,-1.53c0.06,0.045 0.135,0.09 0.225,0.09c0.03,0 0.06,-0.015 0.09,-0.03l-0.465,-1.14Z" style="fill:#54657e;fill-rule:nonzero;"/><path d="M343.937,330.831c1.005,0.9 2.535,2.475 3.285,3.435l0.9,-0.825c-0.81,-0.945 -2.28,-2.43 -3.39,-3.315l-0.795,0.705Z" style="fill:#54657e;fill-rule:nonzero;"/><path d="M371.012,328.356l-4.95,0c0.255,-0.27 0.48,-0.525 0.69,-0.78c0.195,0 0.3,-0.075 0.33,-0.18l-1.29,-0.225c-0.855,1.215 -2.535,2.55 -4.875,3.48c0.225,0.165 0.525,0.51 0.66,0.75c1.035,-0.465 1.95,-0.99 2.715,-1.53c0.6,0.795 1.35,1.485 2.22,2.07c-1.755,0.735 -3.825,1.215 -5.955,1.47c0.195,0.21 0.435,0.645 0.51,0.9c2.295,-0.345 4.515,-0.915 6.39,-1.8c1.74,0.93 3.885,1.53 6.33,1.8c0.135,-0.285 0.375,-0.72 0.6,-0.945c-2.235,-0.21 -4.245,-0.675 -5.895,-1.41c1.335,-0.78 2.445,-1.785 3.225,-3.045c0.09,-0.03 0.18,-0.075 0.21,-0.15l-0.735,-0.45l-0.18,0.045Zm-0.705,0.84c-0.69,0.915 -1.665,1.665 -2.805,2.265c-1.035,-0.585 -1.89,-1.29 -2.505,-2.13l0.165,-0.135l5.145,0Zm-1.365,-6.36l0,3.45c0,0.18 -0.045,0.225 -0.255,0.24c-0.21,0 -0.885,0 -1.68,-0.015c0.12,0.27 0.24,0.63 0.285,0.9c2.205,0 2.625,-0.03 2.625,-1.11l0,-3.465l4.17,0l0,-0.945l-6.165,0l0,-1.275c0.195,-0.015 0.27,-0.09 0.285,-0.195l-1.32,-0.09l0,1.56l-6.105,0l0,0.945l4.95,0l0,0.09c0,1.29 -0.195,3.06 -2.445,4.365c0.225,0.165 0.57,0.48 0.72,0.69c2.58,-1.545 2.685,-3.69 2.685,-5.145l2.25,0Zm5.4,3.735c-0.555,-0.84 -1.77,-2.085 -2.775,-2.97l-0.795,0.465c1.02,0.915 2.19,2.205 2.73,3.045l0.84,-0.54Zm-11.19,-2.895c-0.48,0.96 -1.56,2.055 -2.625,2.7c0.195,0.15 0.525,0.42 0.705,0.6c1.095,-0.72 2.235,-1.89 2.79,-2.805c0.15,0 0.255,-0.06 0.3,-0.15l-1.17,-0.345Z" style="fill:#54657e;fill-rule:nonzero;"/><path d="M389.567,323.406l-5.085,0l0,-1.32l6.03,0l0,-0.93l-13.215,0l0,0.93l6.165,0l0,1.32l-4.755,0l0,5.64l4.635,0c-0.12,0.735 -0.405,1.44 -0.99,2.07c-0.6,-0.495 -1.095,-1.11 -1.515,-1.875l-0.87,0.3c0.45,0.885 1.02,1.605 1.68,2.19c-0.945,0.69 -2.4,1.275 -4.605,1.695c0.21,0.225 0.465,0.645 0.585,0.87c2.265,-0.495 3.795,-1.155 4.83,-1.95c1.905,1.245 4.53,1.725 8.055,1.965c0.06,-0.33 0.27,-0.75 0.465,-0.975c-3.45,-0.18 -6,-0.555 -7.815,-1.65c0.72,-0.795 1.065,-1.695 1.215,-2.64l5.19,0l0,-5.64Zm-6.105,0.81l0,1.605l-3.78,0l0,-1.605l3.78,0Zm5.1,1.605l-4.08,0l0,-1.605l4.08,0l0,1.605Zm-8.88,0.78l3.78,0l0,0.81c0,0.285 0,0.555 -0.015,0.825l-3.765,0l0,-1.635Zm4.785,1.635c0.015,-0.27 0.015,-0.54 0.015,-0.81l0,-0.825l4.08,0l0,1.635l-4.095,0Z" style="fill:#54657e;fill-rule:nonzero;"/><path d="M397.367,322.926l-3.42,0.09l0.03,0.99c0.615,-0.03 5.355,-0.195 6.915,-0.225c0.03,0.645 0.06,1.65 0.06,1.905c-0.3,-0.27 -0.855,-0.465 -1.395,-0.465c-1.425,0 -2.715,1.215 -2.7,2.805c0,1.53 1.185,2.625 2.52,2.625c0.675,0 1.23,-0.345 1.545,-0.795l0.015,0c-0.375,1.425 -1.605,2.67 -3.9,3.495c0.24,0.225 0.57,0.6 0.765,0.855c2.64,-1.05 3.93,-2.595 4.32,-4.35c0.105,-0.42 0.15,-0.975 0.15,-1.455c0,-0.63 -0.03,-1.08 -0.18,-1.575c-0.045,-0.825 -0.075,-1.905 -0.105,-3.075c1.785,-0.06 3.6,-0.09 4.875,-0.06l0,-1.035c-1.125,0.015 -3.06,0.06 -4.905,0.12c-0.03,-1.575 -0.03,-1.755 -0.03,-1.935c0.27,-0.045 0.375,-0.195 0.39,-0.315l-1.545,-0.06c0.03,0.375 0.075,2.01 0.09,2.34l-3.495,0.12Zm2.13,6.84c-0.87,0 -1.665,-0.69 -1.665,-1.74c0.015,-1.095 0.75,-1.89 1.785,-1.905c1.53,0 1.53,1.365 1.53,1.95c0,0.87 -0.585,1.695 -1.65,1.695Z" style="fill:#54657e;fill-rule:nonzero;"/><path d="M414.752,326.901c1.17,-1.125 4.02,-3.795 5.085,-4.665c0.15,-0.015 0.285,-0.075 0.36,-0.135l-0.795,-0.975l-0.225,0.105c-1.095,0.165 -4.965,0.315 -6.99,0.33l0.12,1.275c0.12,-0.03 0.27,-0.12 0.315,-0.225c1.71,-0.06 4.71,-0.18 5.58,-0.3c-2.04,1.905 -6.33,6 -7.68,7.41l0.765,0.765c0.405,-0.465 0.99,-1.095 1.44,-1.515c0.99,-0.96 3.195,-1.965 5.445,-1.965c1.89,0 3.09,1.035 3.09,2.655c0,1.395 -0.87,2.355 -2.07,2.805c-0.225,-1.365 -1.365,-2.715 -3.06,-2.715c-1.365,0 -2.46,0.9 -2.46,2.01c0,1.32 1.335,2.1 3.285,2.1c3.015,0 5.4,-1.5 5.4,-4.215c0,-2.205 -1.5,-3.6 -3.885,-3.6c-1.185,0 -2.73,0.36 -3.72,0.87l0,-0.015Zm-0.165,4.845c0,-0.69 0.69,-1.11 1.47,-1.11c1.11,0 1.965,0.975 2.13,2.13c-0.39,0.09 -0.915,0.15 -1.365,0.15c-0.99,0 -2.235,-0.255 -2.235,-1.17Z" style="fill:#54657e;fill-rule:nonzero;"/><path d="M432.032,320.796l0,4.89l6.945,0l0,-4.89l-6.945,0Zm0.915,2.055l0,-1.29l5.085,0l0,1.29l-5.085,0Zm0,2.055l0,-1.305l5.085,0l0,1.305l-5.085,0Zm-3.84,-0.315l1.695,0l0,-0.975l-1.695,0l0,-2.985c0.195,-0.03 0.27,-0.09 0.285,-0.195l-1.245,-0.09l0,3.27l-1.83,0l0,0.975l1.83,0l0,4.965c-0.795,0.345 -1.515,0.645 -2.085,0.87l0.495,1.125c0.09,-0.045 0.165,-0.135 0.165,-0.255c1.05,-0.48 2.7,-1.275 4.245,-2.025c-0.15,-0.705 -0.18,-0.795 -0.21,-0.885l-1.65,0.75l0,-4.545Zm10.965,2.01l-9.6,0l0,0.885l2.235,0c-0.735,1.35 -1.905,2.535 -3.09,3.255c0.195,0.15 0.495,0.435 0.645,0.6c0.75,-0.48 1.485,-1.125 2.115,-1.86l1.62,0c-0.81,1.44 -2.16,2.88 -3.435,3.6c0.24,0.165 0.525,0.435 0.69,0.645c1.395,-0.915 2.865,-2.625 3.66,-4.245l1.59,0c-0.585,1.695 -1.665,3.435 -2.88,4.305c0.27,0.135 0.57,0.39 0.765,0.585c1.245,-1.02 2.385,-3.03 2.955,-4.89l1.35,0c-0.21,2.52 -0.435,3.525 -0.705,3.81c-0.12,0.135 -0.24,0.15 -0.465,0.15c-0.225,0 -0.75,0 -1.335,-0.06c0.135,0.225 0.21,0.585 0.225,0.84c0.3,0.015 0.6,0.03 0.855,0.03c0.78,0 1.155,0 1.515,-0.375c0.405,-0.435 0.645,-1.62 0.9,-4.875l0.06,-0.3l-0.555,-0.09l-0.21,0.015l-5.925,0c0.255,-0.375 0.495,-0.75 0.69,-1.14l6.33,0l0,-0.885Z" style="fill:#54657e;fill-rule:nonzero;"/><path d="M446.012,334.281l0,-0.645l7.23,0l0,0.645l1.02,0l0,-6.075l-9.24,0l0,6.075l0.99,0Zm7.23,-1.56l-7.23,0l0,-3.585l7.23,0l0,3.585Zm-4.2,-12.405c-1.2,2.01 -3.81,4.365 -6.48,5.745c0.21,0.21 0.495,0.57 0.63,0.795c2.625,-1.425 5.145,-3.63 6.39,-5.49c1.44,1.965 4.155,4.125 6.54,5.37c0.165,-0.3 0.42,-0.645 0.66,-0.87c-2.355,-1.095 -5.085,-3.225 -6.57,-5.235c0.165,-0.03 0.27,-0.09 0.315,-0.225l-1.485,-0.09Zm-3.255,5.91l7.68,0l0,-0.915l-7.68,0l0,0.915Z" style="fill:#54657e;fill-rule:nonzero;"/><path d="M464.462,325.566l2.28,0c0.435,0 1.065,-0.015 1.53,-0.045c0.075,1.47 0.165,3.045 0.21,3.99c-0.465,-0.135 -0.96,-0.195 -1.425,-0.195c-1.38,0 -2.925,0.675 -2.925,2.205c0,1.32 1.17,2.16 2.925,2.16c2.25,0 2.49,-1.425 2.505,-2.7c0.93,0.435 1.815,1.095 2.43,1.71l0.585,-0.96c-0.78,-0.705 -1.92,-1.44 -3.06,-1.905c-0.045,-0.96 -0.12,-2.715 -0.18,-4.38c1.275,-0.105 2.31,-0.315 3.03,-0.54l-0.135,-1.05c-0.795,0.27 -1.755,0.48 -2.94,0.6c-0.03,-1.14 -0.06,-2.115 -0.075,-3.075c0.24,-0.045 0.375,-0.165 0.39,-0.315l-1.515,-0.045c0.03,1.11 0.075,2.22 0.135,3.51c-1.26,0.09 -2.52,0.075 -3.78,0.06l0.015,0.975Zm-2.805,7.74c-0.105,-0.285 -0.15,-0.51 -0.15,-0.72c0,-0.705 1.05,-2.985 1.545,-4.005l-0.675,-0.63c-0.315,0.705 -0.915,2.145 -1.245,3.045c-0.12,-0.555 -0.135,-1.695 -0.135,-2.835c0,-1.74 0.33,-4.41 0.87,-6.465c0.21,-0.015 0.36,-0.12 0.39,-0.27l-1.455,-0.285c-0.495,2.505 -0.81,5.01 -0.81,7.005c0,1.965 0.18,4.2 0.645,5.28l1.02,-0.12Zm6.915,-2.295c0,1.2 -0.405,1.74 -1.515,1.74c-1.095,0 -1.995,-0.42 -1.995,-1.26c0,-0.945 1.095,-1.275 2.01,-1.275c0.495,0 1.005,0.12 1.485,0.27l0.015,0.525Z" style="fill:#54657e;fill-rule:nonzero;"/><path d="M484.247,324.981c-0.045,0.24 -0.09,0.465 -0.15,0.705c-0.195,-0.015 -0.39,-0.015 -0.615,-0.015c-0.255,0 -1.2,0.015 -2.25,0.345c-0.015,-0.705 0,-1.455 0.03,-2.235c1.71,-0.045 4.605,-0.195 6.195,-0.585l-0.135,-1.02c-1.515,0.39 -4.38,0.585 -6.015,0.63c0.045,-0.555 0.075,-1.245 0.12,-1.8c0.225,-0.03 0.375,-0.15 0.39,-0.3l-1.5,-0.105c-0.03,0.705 -0.06,1.545 -0.075,2.235c-1.29,0 -2.595,0 -3.36,-0.045l0.03,0.99c0.495,0.03 0.765,0.03 3.3,0.03c-0.015,0.885 -0.015,1.74 0.015,2.52c-2.175,0.87 -3.885,2.52 -3.885,4.59c0,1.11 0.615,1.995 1.815,1.995c0.675,0 1.635,-0.24 2.835,-1.125c0.105,0.285 0.225,0.54 0.36,0.75l0.885,-0.555c-0.15,-0.225 -0.285,-0.495 -0.39,-0.81c1.245,-1.14 2.34,-2.715 2.985,-4.41c1.605,0.27 2.775,1.125 2.85,2.865l0,0.105c0,1.935 -1.995,3.015 -5.1,3.315c0.135,0.24 0.345,0.69 0.405,0.9c3.75,-0.42 5.79,-1.86 5.79,-4.245c0,-1.77 -0.975,-3.42 -3.615,-3.885c0.06,-0.18 0.105,-0.375 0.15,-0.57l-1.065,-0.27Zm-2.655,5.1c-0.21,-0.84 -0.315,-1.875 -0.345,-3.09c1.125,-0.405 2.295,-0.375 2.535,-0.36c-0.48,1.32 -1.29,2.535 -2.19,3.45Zm-3.195,1.83c-0.54,0.03 -1.035,-0.27 -1.035,-1.155c0,-1.455 1.275,-2.7 2.91,-3.42c0.06,1.395 0.195,2.58 0.435,3.51c-0.795,0.645 -1.605,1.05 -2.31,1.065Z" style="fill:#54657e;fill-rule:nonzero;"/><path d="M500.927,327.276c0,0.705 0.075,1.68 0.135,2.64c-0.6,-0.165 -1.155,-0.27 -1.695,-0.27c-1.38,0 -2.955,0.72 -2.955,2.22c-0.015,1.41 1.26,2.16 2.925,2.16c2.205,0 2.805,-1.17 2.805,-2.67c0.81,0.36 1.83,0.945 2.655,1.575l0.54,-0.96c-0.99,-0.72 -2.235,-1.365 -3.195,-1.74c-0.09,-1.035 -0.18,-1.86 -0.195,-3.075l-1.02,0.12Zm0.21,4.32c0,0.99 -0.69,1.515 -1.77,1.515c-1.17,0 -2.01,-0.405 -2.01,-1.26c0.015,-0.93 1.08,-1.29 1.98,-1.29c0.54,0 1.17,0.105 1.785,0.345c0.015,0.225 0.015,0.45 0.015,0.69Zm-4.755,-11.04c-0.105,0.885 -0.24,1.74 -0.42,2.535c-0.435,0 -0.915,0.015 -1.38,0.015l-1.785,0l0,0.975l2.985,0c-0.645,2.73 -1.68,4.98 -3.045,6.945l1.005,0.405c1.47,-2.16 2.46,-4.5 3.18,-7.38c1.725,-0.135 3.375,-0.375 4.77,-0.72l-0.165,-1.02c-1.305,0.39 -2.94,0.645 -4.41,0.735c0.135,-0.585 0.27,-1.365 0.375,-2.025c0.27,-0.015 0.42,-0.135 0.465,-0.255l-1.575,-0.21Zm8.79,4.035c-1.635,0 -3.705,0.315 -5.415,0.81l0.165,0.945c1.56,-0.45 3.615,-0.72 5.31,-0.735l-0.06,-1.02Z" style="fill:#54657e;fill-rule:nonzero;"/><path d="M517.667,322.581c-1.245,0.45 -2.73,0.705 -4.2,0.84c0.135,-0.915 0.285,-1.725 0.375,-2.385c0.21,-0.015 0.42,-0.135 0.435,-0.3l-1.545,-0.15c-0.09,0.915 -0.24,1.965 -0.39,2.925c-0.39,0.015 -1.89,0.015 -2.025,0.015c-0.345,0 -0.66,0 -0.9,-0.015l0.015,1.02c0.45,0.015 2.46,0 2.76,-0.015c-0.585,3.405 -1.485,6.51 -2.715,8.925l1.08,0.405c1.2,-2.52 2.115,-5.94 2.745,-9.375c1.635,-0.12 3.33,-0.405 4.605,-0.855l-0.24,-1.035Zm-1.365,4.725c1.53,-0.48 3.495,-0.72 5.19,-0.675l0,-1.02c-1.77,-0.045 -3.9,0.27 -5.445,0.765l0.255,0.93Zm5.595,5.235c-0.555,0.045 -1.125,0.06 -1.68,0.06c-2.73,0 -3.87,-0.3 -3.87,-1.485c0,-0.465 0.255,-1.05 0.78,-1.665l-0.9,-0.39c-0.63,0.765 -0.915,1.515 -0.93,2.175c-0.015,0.99 0.6,1.77 1.665,2.07c0.81,0.225 2.145,0.33 3.555,0.33c0.465,0 0.93,-0.015 1.38,-0.03l0,-1.065Z" style="fill:#54657e;fill-rule:nonzero;"/><path d="M531.917,322.806c0.135,-0.015 0.3,-0.03 0.45,-0.03c3.51,0 5.1,2.25 5.1,4.725c0,2.835 -1.77,4.515 -5.22,5.175c0.24,0.27 0.495,0.675 0.63,0.915c3.63,-0.84 5.7,-2.565 5.7,-6.135c0,-2.925 -1.875,-5.67 -6.21,-5.67c-3.945,0 -6.75,3.015 -6.75,6.615c0,2.37 1.14,3.63 2.4,3.63c2.49,0 4.05,-4.065 4.59,-8.73c0.195,0 0.315,-0.105 0.375,-0.24l-1.065,-0.255Zm-3.87,8.175c-0.72,0 -1.41,-1.005 -1.41,-2.61c0,-2.625 1.875,-5.13 4.905,-5.505c-0.375,4.11 -1.68,8.115 -3.495,8.115Z" style="fill:#54657e;fill-rule:nonzero;"/><path d="M20.177,348.796l0,2.415l0.99,0l0,-3.33l-2.445,0c0.525,-0.6 1.065,-1.305 1.44,-1.845c0.15,0.015 0.27,-0.03 0.315,-0.12c-0.12,-0.075 -0.24,-0.15 -1.185,-0.495c-0.405,0.72 -1.14,1.77 -1.725,2.46l-2.625,0l0.525,-0.225c-0.195,-0.645 -0.735,-1.65 -1.275,-2.4l-0.87,0.33c0.465,0.69 0.96,1.62 1.185,2.295l-3.18,0l0.435,-0.225c-0.27,-0.6 -0.915,-1.485 -1.515,-2.145l-0.84,0.405c0.495,0.585 1.05,1.38 1.335,1.965l-2.34,0l0,3.33l0.96,0l0,-2.415l10.815,0Zm-4.965,5.385l0,-0.54c1.335,-0.66 2.76,-1.635 3.645,-2.475c0.09,-0.015 0.18,-0.06 0.225,-0.135l-0.78,-0.495l-0.18,0.06l-7.59,0l0,0.9l6.525,0c-0.615,0.51 -1.41,1.035 -2.175,1.425l-0.705,-0.045l0,1.305l-6.15,0l0,0.945l6.15,0l0,2.91c0,0.33 -0.105,0.33 -0.975,0.33c-0.48,0 -1.155,-0.015 -1.92,-0.045c0.165,0.285 0.36,0.705 0.435,0.99c2.775,0 3.495,-0.015 3.495,-1.275l0,-2.91l6.225,0l0,-0.945l-6.225,0Z" style="fill:#54657e;fill-rule:nonzero;"/><path d="M31.427,356.401l6.21,0l0,-7.89l-3.21,0c0.18,-0.51 0.345,-1.095 0.45,-1.545l3.3,0l0,-0.9l-7.275,0l0,0.9l2.94,0c-0.105,0.495 -0.24,1.065 -0.375,1.545l-2.04,0l0,7.89Zm0.93,-3.18l0,-1.56l4.32,0l0,1.56l-4.32,0Zm0,-2.34l0,-1.56l4.32,0l0,1.56l-4.32,0Zm0,4.71l0,-1.59l4.32,0l0,1.59l-4.32,0Zm-2.865,-7.68c0.33,-0.465 0.72,-1.17 0.96,-1.65c0.15,0 0.255,-0.03 0.3,-0.12l-1.035,-0.39c-0.195,0.54 -0.585,1.35 -0.9,1.86l0.675,0.3Zm-1.425,4.305l0,-2.145c0.765,0.54 1.83,1.365 2.25,1.74l0.555,-0.735c-0.42,-0.33 -2.19,-1.485 -2.805,-1.845l0,-0.21l2.73,0l0,-0.84l-2.73,0l0,-2.565c0.195,-0.03 0.27,-0.105 0.285,-0.195l-1.185,-0.075l0,2.835l-2.76,0l0,0.84l2.415,0c-0.66,1.005 -1.695,2.01 -2.64,2.505c0.195,0.165 0.465,0.48 0.6,0.675c0.825,-0.495 1.71,-1.395 2.385,-2.355l0,2.37l0.9,0Zm2.79,2.61l0,-0.9l-2.79,0l0,-1.095c0.195,-0.03 0.27,-0.105 0.285,-0.21l-1.215,-0.075l0,1.38l-2.745,0l0,0.9l2.715,0c-0.135,1.17 -0.705,2.415 -2.91,3.405c0.18,0.18 0.435,0.54 0.555,0.765c1.62,-0.735 2.46,-1.635 2.895,-2.565c0.855,0.63 1.785,1.38 2.28,1.875l0.675,-0.69c-0.615,-0.54 -1.74,-1.41 -2.67,-2.055c0.045,-0.24 0.09,-0.495 0.105,-0.735l2.82,0Zm-6.12,-8.745c0.39,0.555 0.75,1.305 0.885,1.8l0.765,-0.33c-0.135,-0.48 -0.51,-1.215 -0.915,-1.74l-0.735,0.27Zm8.1,10.65c-0.6,0.66 -1.86,1.44 -2.985,1.875c0.225,0.165 0.525,0.48 0.675,0.675c1.125,-0.45 2.415,-1.26 3.015,-1.92c0.135,-0.015 0.225,-0.06 0.27,-0.12l-0.975,-0.51Zm2.25,0.57c0.9,0.585 2.04,1.425 2.58,1.98c0.615,-0.435 0.705,-0.495 0.795,-0.555c-0.6,-0.57 -1.74,-1.395 -2.625,-1.935l-0.75,0.51Z" style="fill:#54657e;fill-rule:nonzero;"/><path d="M50.957,346.381l-1.035,0l-4.755,12.285l1.005,0l4.785,-12.285Z" style="fill:#54657e;fill-rule:nonzero;"/><path d="M68.237,354.751l0,-0.975c0.195,-0.03 0.27,-0.105 0.285,-0.21l-1.02,-0.045l0,-0.015l2.7,0l0,-4.935l-4.815,0l0,-1.11l6.045,0l0,-0.87l-6.045,0l0,-0.945c0.195,-0.03 0.27,-0.105 0.285,-0.21l-1.29,-0.09l0,1.245l-5.925,0l0,0.87l5.925,0l0,1.11l-4.665,0l0,4.935l7.53,0l0,1.245l-9.135,0l0,0.885l9.135,0l0,2.46c0,0.3 -0.105,0.3 -0.975,0.3c-0.42,0 -0.99,-0.015 -1.605,-0.03c0.135,0.27 0.285,0.63 0.33,0.9c1.335,0 2.16,0 2.625,-0.15c0.48,-0.15 0.615,-0.42 0.615,-1.005l0,-2.475l3.48,0l0,-0.885l-3.48,0Zm-3.855,-5.415l0,1.32l-3.705,0l0,-1.32l3.705,0Zm4.83,1.32l-3.825,0l0,-1.32l3.825,0l0,1.32Zm-4.83,0.735l0,1.35l-3.705,0l0,-1.35l3.705,0Zm1.005,1.35l0,-1.35l3.825,0l0,1.35l-3.825,0Zm-1.725,5.205c-0.51,-0.63 -1.56,-1.5 -2.46,-2.085l-0.75,0.555c0.9,0.615 1.935,1.53 2.415,2.16l0.795,-0.63Z" style="fill:#54657e;fill-rule:nonzero;"/><path d="M88.382,348.196l-6.075,0c0.27,-0.78 0.495,-1.59 0.69,-2.4c0.195,0 0.3,-0.045 0.33,-0.165l-1.29,-0.3c-0.585,2.67 -1.605,5.31 -2.91,6.81c0.255,0.15 0.645,0.435 0.84,0.6c0.48,-0.57 0.93,-1.29 1.32,-2.085c0.48,1.755 1.11,3.33 1.935,4.65c-1.155,1.365 -2.655,2.385 -4.62,3.09c0.18,0.21 0.435,0.645 0.54,0.9c1.965,-0.765 3.495,-1.77 4.68,-3.12c1.035,1.365 2.325,2.415 3.945,3.09c0.165,-0.27 0.48,-0.675 0.72,-0.885c-1.65,-0.63 -2.97,-1.68 -3.99,-3.045c1.17,-1.62 1.935,-3.66 2.46,-6.165l1.425,0l0,-0.975Zm-10.65,0.03l2.445,0l0,-0.975l-5.7,0l0,0.975l2.25,0l0,6.615c-0.9,0.225 -1.71,0.435 -2.355,0.585l0.495,1.155c0.09,-0.03 0.165,-0.12 0.18,-0.24c1.32,-0.345 3.405,-0.945 5.355,-1.53l-0.105,-0.885c-0.855,0.225 -1.725,0.45 -2.565,0.66l0,-6.36Zm8.16,0.945c-0.435,2.115 -1.08,3.84 -2.01,5.265c-0.9,-1.485 -1.545,-3.24 -1.965,-5.19l0.03,-0.075l3.945,0Z" style="fill:#54657e;fill-rule:nonzero;"/><path d="M103.697,350.611c-1.2,0.465 -2.79,1.08 -4.05,1.65c-0.195,-1.215 -0.84,-1.95 -1.86,-1.95c-0.765,0 -1.755,0.39 -2.415,0.975l-0.015,0c0.345,-0.51 0.72,-1.41 1.08,-2.535c1.485,-0.045 3.75,-0.255 5.625,-0.84l-0.18,-1.005c-1.95,0.615 -4.14,0.855 -5.16,0.87c0.135,-0.54 0.27,-1.065 0.375,-1.665c0.225,-0.03 0.345,-0.12 0.375,-0.27l-1.47,-0.18c-0.105,0.81 -0.24,1.455 -0.405,2.145l-1.02,0.015c-0.615,0 -1.68,0 -2.595,-0.015l0,0.975l2.505,0l0.84,-0.015c-0.87,2.955 -2.28,4.215 -3.78,5.535l0.735,0.735c0.645,-0.585 1.23,-1.17 1.65,-1.635c1.35,-1.5 2.49,-2.115 3.585,-2.115c0.6,0 1.02,0.465 1.11,1.41c-2.25,1.125 -3.99,2.4 -3.99,3.72c0,1.53 1.275,2.22 4.155,2.22c1.545,0 2.895,-0.03 3.78,-0.12l-0.015,-1.005c-0.96,0.12 -2.31,0.15 -3.765,0.15c-2.07,0 -3.105,-0.42 -3.105,-1.29c0,-0.9 1.38,-1.905 3.075,-2.73c0.015,0.165 0.015,0.375 0.015,0.6c0,0.585 -0.03,1.275 -0.075,1.815l1.095,-0.06c0.03,-0.585 0.045,-1.125 0.045,-1.605c0,-0.435 -0.015,-0.825 -0.045,-1.17c1.245,-0.54 2.91,-1.155 4.05,-1.53c0.06,0.045 0.135,0.09 0.225,0.09c0.03,0 0.06,-0.015 0.09,-0.03l-0.465,-1.14Z" style="fill:#54657e;fill-rule:nonzero;"/><path d="M118.337,354.136l0,-1.5l2.265,0l0,-0.81l-2.265,0l0,-0.9c0.195,-0.03 0.285,-0.105 0.3,-0.21l-1.26,-0.09l0,1.2l-2.535,0l0,-0.915c0.195,-0.015 0.285,-0.09 0.3,-0.195l-1.26,-0.09l0,1.2l-2.19,0l0,0.81l2.19,0l0,1.5l-2.805,0l0,0.81l10.14,0l0,-0.81l-2.88,0Zm-0.96,-1.5l0,1.5l-2.535,0l0,-1.5l2.535,0Zm-9.75,-6.435c0.9,0.735 1.905,1.83 2.31,2.61l0.84,-0.585c-0.435,-0.765 -1.455,-1.815 -2.37,-2.535l-0.78,0.51Zm4.035,1.53l0,1.575c0,0.87 0.285,1.065 1.35,1.065l1.905,0c0.765,0 1.02,-0.24 1.11,-1.23c-0.24,-0.06 -0.585,-0.15 -0.765,-0.285c-0.03,0.69 -0.105,0.78 -0.465,0.78l-1.71,0c-0.48,0 -0.555,-0.06 -0.555,-0.345l0,-0.825l2.67,0l0,-2.52l-3.915,0l0,0.735l3.03,0l0,1.05l-2.655,0Zm4.995,0l0,1.56c0,0.885 0.3,1.08 1.425,1.08l2.07,0c0.795,0 1.05,-0.255 1.155,-1.29c-0.24,-0.06 -0.585,-0.165 -0.78,-0.285c-0.03,0.75 -0.105,0.84 -0.495,0.84l-1.875,0c-0.54,0 -0.63,-0.06 -0.63,-0.345l0,-0.825l2.835,0l0,-2.52l-4.125,0l0,0.735l3.225,0l0,1.05l-2.805,0Zm-9.15,3.6l0,0.96l1.935,0l0,4.095c-0.675,0.645 -1.455,1.305 -2.085,1.8l0.57,1.02c0.105,-0.06 0.135,-0.105 0.135,-0.225c0.555,-0.525 1.26,-1.185 1.92,-1.86c1.485,1.86 3.57,1.86 6.915,1.86c1.515,0 3.18,-0.03 4.215,-0.06c0.045,-0.285 0.195,-0.735 0.33,-0.96c-1.245,0.075 -3.345,0.12 -5.07,0.12c-2.58,0 -4.8,0 -5.97,-1.8l0,-4.95l-2.895,0Zm7.005,3.72c-0.765,0.72 -2.01,1.41 -3.06,1.815c0.21,0.15 0.525,0.435 0.69,0.615c1.065,-0.465 2.31,-1.2 3.135,-1.89c0.12,0.03 0.24,0.015 0.315,-0.105l-1.08,-0.435Zm2.4,0.465c1.215,0.585 2.475,1.35 3.18,1.965l0.99,-0.465c-0.81,-0.63 -2.19,-1.395 -3.45,-1.965l-0.72,0.465Z" style="fill:#54657e;fill-rule:nonzero;"/><path d="M128.957,351.991l-1.68,0.525l0,-3.21l1.725,0l0,-0.945l-1.725,0l0,-2.745c0.21,-0.03 0.285,-0.09 0.3,-0.21l-1.29,-0.075l0,3.03l-2.28,0l0,0.945l2.28,0l0,3.525c-0.93,0.285 -1.785,0.54 -2.46,0.72l0.42,1.185c0.105,-0.03 0.18,-0.12 0.18,-0.24c0.51,-0.165 1.155,-0.39 1.86,-0.63l0,4.185c0,0.21 -0.09,0.27 -0.285,0.285c-0.195,0 -0.84,0 -1.545,-0.015c0.135,0.27 0.285,0.69 0.33,0.93c1.995,0.03 2.49,-0.135 2.49,-1.215l0,-4.53l1.815,-0.645l-0.135,-0.87Zm8.16,-5.94l-7.065,0l0,5.28c0,2.31 -0.195,5.265 -2.13,7.32c0.21,0.135 0.63,0.48 0.765,0.69c1.83,-1.935 2.28,-4.8 2.355,-7.14l2.04,0c0.66,3.225 1.935,5.82 4.14,7.08c0.165,-0.285 0.48,-0.675 0.72,-0.885c-2.025,-1.02 -3.255,-3.405 -3.855,-6.195l3.03,0l0,-6.15Zm-1.005,5.19l-5.055,0l0,-4.215l5.055,0l0,4.215Z" style="fill:#54657e;fill-rule:nonzero;"/><path d="M143.717,345.841c-0.105,1.845 -0.24,6.495 -0.24,8.385c0,2.835 1.395,4.41 4.125,4.41c2.205,0 4.335,-1.05 6.09,-3.045c-0.18,-0.165 -0.525,-0.645 -0.675,-0.885c-1.71,1.935 -3.57,2.85 -5.4,2.85c-1.89,0 -3,-1.08 -3,-3.315c0,-2.22 0.15,-6.195 0.27,-7.935c0.3,-0.045 0.435,-0.15 0.465,-0.33l-1.635,-0.135Z" style="fill:#54657e;fill-rule:nonzero;"/><path d="M157.307,348.676c0.12,-0.015 0.285,-0.12 0.33,-0.24c1.935,-0.18 6.42,-0.525 8.01,-0.63c-2.745,1.725 -4.83,4.29 -4.83,6.405c0,2.67 1.59,4.26 5.85,4.875l0.495,-1.05c-3.72,-0.48 -5.19,-1.725 -5.19,-3.825c0,-1.935 2.175,-4.35 4.425,-5.7c0.96,-0.615 1.695,-0.765 2.565,-0.765c0.18,0 0.36,0 0.555,0.015l-0.015,-1.125c-1.95,0.015 -11.19,0.675 -12.315,0.72l0.12,1.32Z" style="fill:#54657e;fill-rule:nonzero;"/><path d="M177.242,345.841c-0.18,1.32 -0.42,2.67 -0.645,3.765c-1.005,0.12 -2.235,0.255 -2.97,0.345l0.09,1.05c0.81,-0.135 1.905,-0.27 2.67,-0.36c-0.705,2.85 -1.53,5.175 -2.985,7.5l0.99,0.48c1.44,-2.415 2.325,-5.04 3.075,-8.1c0.765,-0.09 1.38,-0.15 1.83,-0.15c1.5,-0.015 2.055,1.005 2.07,2.715c0,0.765 -0.165,2.145 -0.48,3.075c-0.3,0.96 -0.81,1.5 -1.665,1.5c-0.465,0 -1.095,-0.21 -2.295,-1.14c-0.12,0.315 -0.24,0.645 -0.405,0.915c1.29,1.05 2.1,1.305 2.715,1.305c1.245,0 2.205,-0.735 2.67,-2.265c0.3,-0.9 0.51,-2.235 0.51,-3.36c0,-2.25 -0.78,-3.765 -3.06,-3.735c-0.375,0 -0.99,0.06 -1.665,0.135c0.18,-0.9 0.45,-2.355 0.615,-3.195c0.285,-0.015 0.465,-0.09 0.495,-0.27l-1.56,-0.21Zm9.585,7.005c-0.48,-2.145 -2.055,-4.215 -3.645,-5.34l-0.81,0.63c1.47,1.08 2.895,2.94 3.375,5.13l1.08,-0.42Z" style="fill:#54657e;fill-rule:nonzero;"/><path d="M193.517,346.636c1.98,0.27 4.215,0.705 5.76,1.365l0.375,-1.035c-1.47,-0.615 -3.78,-1.08 -5.82,-1.32l-0.315,0.99Zm-1.425,1.74c-0.03,2.94 -0.555,5.625 -0.855,5.91l1.02,0.495c0.42,-0.735 2.925,-2.4 5.7,-2.4c1.755,0 2.76,0.87 2.745,2.31c-0.045,2.145 -2.145,3 -7.38,3.225c0.165,0.285 0.3,0.705 0.375,0.99c5.805,-0.24 8.085,-1.47 8.13,-4.23c0.03,-2.1 -1.41,-3.285 -3.72,-3.285c-1.755,0 -4.05,0.75 -5.52,1.845l-0.015,0c0.21,-0.315 0.495,-2.205 0.615,-4.425c0.21,-0.03 0.33,-0.105 0.39,-0.255l-1.485,-0.18Z" style="fill:#54657e;fill-rule:nonzero;"/><path d="M215.867,356.176l0,-10.23l4.215,0l0,-0.78l-4.995,0l0,11.01l0.78,0Z" style="fill:#54657e;fill-rule:nonzero;"/><path d="M227.552,346.381c-2.865,0 -4.98,2.265 -4.98,5.985c0,3.57 2.01,5.805 4.845,5.805c2.7,0 4.95,-1.98 4.95,-6c0,-3.45 -1.89,-5.79 -4.815,-5.79Zm-0.06,1.035c2.445,0 3.57,2.52 3.57,4.815c0,2.61 -1.245,4.905 -3.6,4.905c-2.325,0 -3.585,-2.37 -3.585,-4.8c0,-2.43 1.095,-4.92 3.615,-4.92Z" style="fill:#54657e;fill-rule:nonzero;"/><path d="M238.937,351.421l4.02,-4.86l-1.53,0l-3.48,4.35c-0.285,0.375 -0.6,0.795 -0.885,1.23l-0.06,0l0,-5.58l-1.245,0l0,11.43l1.245,0l0,-4.485l1.065,-1.245l3.735,5.73l1.47,0l-4.335,-6.57Z" style="fill:#54657e;fill-rule:nonzero;"/><path d="M249.407,348.256l0,10.215l-4.215,0l0,0.795l4.995,0l0,-11.01l-0.78,0Z" style="fill:#54657e;fill-rule:nonzero;"/><path d="M274.457,350.611c-1.2,0.465 -2.79,1.08 -4.05,1.65c-0.195,-1.215 -0.84,-1.95 -1.86,-1.95c-0.765,0 -1.755,0.39 -2.415,0.975l-0.015,0c0.345,-0.51 0.72,-1.41 1.08,-2.535c1.485,-0.045 3.75,-0.255 5.625,-0.84l-0.18,-1.005c-1.95,0.615 -4.14,0.855 -5.16,0.87c0.135,-0.54 0.27,-1.065 0.375,-1.665c0.225,-0.03 0.345,-0.12 0.375,-0.27l-1.47,-0.18c-0.105,0.81 -0.24,1.455 -0.405,2.145l-1.02,0.015c-0.615,0 -1.68,0 -2.595,-0.015l0,0.975l2.505,0l0.84,-0.015c-0.87,2.955 -2.28,4.215 -3.78,5.535l0.735,0.735c0.645,-0.585 1.23,-1.17 1.65,-1.635c1.35,-1.5 2.49,-2.115 3.585,-2.115c0.6,0 1.02,0.465 1.11,1.41c-2.25,1.125 -3.99,2.4 -3.99,3.72c0,1.53 1.275,2.22 4.155,2.22c1.545,0 2.895,-0.03 3.78,-0.12l-0.015,-1.005c-0.96,0.12 -2.31,0.15 -3.765,0.15c-2.07,0 -3.105,-0.42 -3.105,-1.29c0,-0.9 1.38,-1.905 3.075,-2.73c0.015,0.165 0.015,0.375 0.015,0.6c0,0.585 -0.03,1.275 -0.075,1.815l1.095,-0.06c0.03,-0.585 0.045,-1.125 0.045,-1.605c0,-0.435 -0.015,-0.825 -0.045,-1.17c1.245,-0.54 2.91,-1.155 4.05,-1.53c0.06,0.045 0.135,0.09 0.225,0.09c0.03,0 0.06,-0.015 0.09,-0.03l-0.465,-1.14Z" style="fill:#54657e;fill-rule:nonzero;"/><path d="M289.547,348.091l-0.18,0.09l-5.28,0c0.345,-0.6 0.66,-1.23 0.96,-1.89c0.195,0 0.375,-0.045 0.435,-0.195l-1.425,-0.405c-1.02,2.64 -2.745,4.935 -4.785,6.51c0.3,0.195 0.645,0.48 0.855,0.69c1.335,-1.05 2.49,-2.355 3.36,-3.705l5.355,0c-1.245,3.975 -3.675,6.975 -7.605,8.88c0.3,0.225 0.585,0.57 0.765,0.825c4.14,-2.1 6.6,-5.22 8.175,-10.08c0.09,-0.06 0.165,-0.135 0.225,-0.21l-0.855,-0.51Z" style="fill:#54657e;fill-rule:nonzero;"/><path d="M304.532,346.081l0,5.115c0,2.775 -0.93,5.34 -5.085,6.885c0.255,0.195 0.63,0.585 0.78,0.81c4.305,-1.665 5.385,-4.545 5.385,-7.695l0,-4.77c0.24,-0.03 0.345,-0.105 0.36,-0.255l-1.44,-0.09Zm-5.85,7.965l0,-6.93c0.24,-0.03 0.345,-0.135 0.36,-0.27l-1.425,-0.09l0,7.29l1.065,0Z" style="fill:#54657e;fill-rule:nonzero;"/><path d="M316.817,349.246c0.33,1.035 0.615,2.415 0.705,3.375l0.885,-0.165c-0.105,-0.96 -0.39,-2.4 -0.705,-3.405l-0.885,0.195Zm5.025,0.285c-1.095,4.47 -3.15,6.93 -6.735,8.34c0.195,0.165 0.465,0.51 0.585,0.69c3.63,-1.47 5.835,-4.155 7.005,-8.535c0.135,0.015 0.285,-0.015 0.315,-0.15l-1.17,-0.345Zm-8.595,0.495c0.45,0.96 0.915,2.325 1.095,3.195l0.84,-0.225c-0.18,-0.87 -0.675,-2.31 -1.125,-3.225l-0.81,0.255Z" style="fill:#54657e;fill-rule:nonzero;"/><path d="M339.047,348.091l-0.18,0.09l-5.28,0c0.345,-0.6 0.66,-1.23 0.96,-1.89c0.195,0 0.375,-0.045 0.435,-0.195l-1.425,-0.405c-1.02,2.64 -2.745,4.935 -4.785,6.51c0.3,0.195 0.645,0.48 0.855,0.69c1.335,-1.05 2.49,-2.355 3.36,-3.705l5.355,0c-1.245,3.975 -3.675,6.975 -7.605,8.88c0.3,0.225 0.585,0.57 0.765,0.825c4.14,-2.1 6.6,-5.22 8.175,-10.08c0.09,-0.06 0.165,-0.135 0.225,-0.21l-0.855,-0.51Z" style="fill:#54657e;fill-rule:nonzero;"/><path d="M347.477,345.841c-0.105,1.845 -0.24,6.495 -0.24,8.385c0,2.835 1.395,4.41 4.125,4.41c2.205,0 4.335,-1.05 6.09,-3.045c-0.18,-0.165 -0.525,-0.645 -0.675,-0.885c-1.71,1.935 -3.57,2.85 -5.4,2.85c-1.89,0 -3,-1.08 -3,-3.315c0,-2.22 0.15,-6.195 0.27,-7.935c0.3,-0.045 0.435,-0.15 0.465,-0.33l-1.635,-0.135Z" style="fill:#54657e;fill-rule:nonzero;"/><path d="M361.067,348.676c0.12,-0.015 0.285,-0.12 0.33,-0.24c1.935,-0.18 6.42,-0.525 8.01,-0.63c-2.745,1.725 -4.83,4.29 -4.83,6.405c0,2.67 1.59,4.26 5.85,4.875l0.495,-1.05c-3.72,-0.48 -5.19,-1.725 -5.19,-3.825c0,-1.935 2.175,-4.35 4.425,-5.7c0.96,-0.615 1.695,-0.765 2.565,-0.765c0.18,0 0.36,0 0.555,0.015l-0.015,-1.125c-1.95,0.015 -11.19,0.675 -12.315,0.72l0.12,1.32Z" style="fill:#54657e;fill-rule:nonzero;"/><path d="M387.242,358.351c-1.83,-1.98 -3.945,-3.915 -5.925,-5.445c-0.525,-0.39 -0.795,-0.69 -0.795,-0.945c0,-0.24 0.285,-0.54 0.645,-0.885c1.23,-1.155 3.57,-3.195 5.07,-4.635c0.06,0.015 0.12,0.03 0.18,0.03c0.195,0 0.3,-0.12 0.33,-0.15l-1.275,-0.84c-1.44,1.47 -4.005,3.9 -5.37,5.16c-0.555,0.51 -0.795,0.93 -0.795,1.365c0,0.54 0.27,0.96 1.02,1.56c2.025,1.59 4.365,3.81 5.88,5.58l1.035,-0.795Z" style="fill:#54657e;fill-rule:nonzero;"/><path d="M404.732,345.646c0.705,0.54 1.59,1.455 2.01,2.04l0.555,-0.48c-0.45,-0.645 -1.335,-1.485 -2.07,-2.025l-0.495,0.465Zm-2.46,1.935c-1.245,0.45 -2.73,0.705 -4.2,0.84c0.135,-0.915 0.285,-1.725 0.375,-2.385c0.21,-0.015 0.42,-0.135 0.435,-0.3l-1.545,-0.15c-0.09,0.915 -0.24,1.965 -0.39,2.925c-0.39,0.015 -1.89,0.015 -2.025,0.015c-0.345,0 -0.66,0 -0.9,-0.015l0.015,1.02c0.45,0.015 2.46,0 2.76,-0.015c-0.585,3.405 -1.485,6.51 -2.715,8.925l1.08,0.405c1.2,-2.52 2.115,-5.94 2.745,-9.375c1.635,-0.12 3.33,-0.405 4.605,-0.855l-0.24,-1.035Zm0.525,-0.945c0.645,0.48 1.59,1.41 2.025,2.055l0.555,-0.48c-0.465,-0.63 -1.35,-1.5 -2.085,-2.04l-0.495,0.465Zm-1.89,5.67c1.53,-0.48 3.495,-0.72 5.19,-0.675l0,-1.02c-1.77,-0.045 -3.9,0.27 -5.445,0.765l0.255,0.93Zm5.58,5.175c-0.6,0.06 -1.29,0.09 -1.95,0.09c-2.445,0 -3.585,-0.27 -3.585,-1.455c0,-0.465 0.255,-1.05 0.78,-1.665l-0.9,-0.39c-0.63,0.765 -0.915,1.515 -0.93,2.175c-0.015,0.99 0.6,1.77 1.665,2.07c0.72,0.195 1.905,0.3 3.12,0.3c0.615,0 1.245,-0.03 1.83,-0.075l-0.03,-1.05Z" style="fill:#54657e;fill-rule:nonzero;"/><path d="M422.537,347.716c-1.32,0.42 -3.27,0.735 -4.995,0.885c-0.165,-0.825 -0.315,-1.77 -0.405,-2.625c0.24,-0.06 0.375,-0.165 0.39,-0.345l-1.605,-0.03c0.18,1.155 0.345,2.265 0.525,3.075c-0.6,0.06 -1.47,0.075 -2.235,0.075c-1.365,0 -2.64,0 -3.54,-0.045l0,1.02c0.96,0.03 2.55,0.045 3.525,0.045c0.9,0 1.815,-0.03 2.49,-0.09c0.405,1.515 0.81,2.475 1.335,3.105c-0.375,-0.075 -0.93,-0.165 -1.665,-0.225l0.18,0.885c1.95,0.105 2.655,0.51 3.345,1.035l0.735,-0.915c-1.62,-0.705 -2.25,-1.92 -2.835,-3.96c1.8,-0.165 3.63,-0.435 4.995,-0.825l-0.24,-1.065Zm-2.37,9.87c-0.765,0.045 -1.53,0.075 -2.835,0.075c-2.385,0 -4.305,-0.48 -4.305,-1.965c0,-0.57 0.405,-1.305 1.08,-1.845l-0.81,-0.645c-0.825,0.795 -1.35,1.665 -1.35,2.52c0,2.01 2.22,2.97 5.355,2.97c1.305,0 2.07,-0.015 2.79,-0.045l0.075,-1.065Z" style="fill:#54657e;fill-rule:nonzero;"/><path d="M427.262,347.056c-0.15,1.275 -0.225,2.715 -0.225,4.035c0,0.675 0.015,1.305 0.06,1.875c0.21,2.88 1.53,5.19 3.435,5.16c1.245,-0.03 2.115,-1.68 2.805,-3.705c-0.255,-0.15 -0.66,-0.435 -0.87,-0.645c-0.54,1.68 -1.32,3.21 -1.92,3.21c-1.155,0.015 -2.19,-1.53 -2.37,-4.08c-0.03,-0.48 -0.06,-1.02 -0.06,-1.575c0,-1.26 0.105,-2.61 0.285,-3.735c0.21,-0.015 0.375,-0.105 0.405,-0.24l-1.545,-0.3Zm12.6,6.93c-0.435,-2.775 -2.04,-4.935 -4.23,-6.105l-0.66,0.81c2.025,1.125 3.36,3.015 3.78,5.64l1.11,-0.345Z" style="fill:#54657e;fill-rule:nonzero;"/><path d="M444.692,355.066c-1.155,0 -2.1,0.945 -2.1,2.1c0,1.155 0.945,2.1 2.1,2.1c1.155,0 2.1,-0.945 2.1,-2.1c0,-1.125 -0.915,-2.1 -2.1,-2.1Zm0,3.645c-0.855,0 -1.545,-0.69 -1.545,-1.545c0,-0.87 0.69,-1.56 1.545,-1.56c0.87,0 1.56,0.69 1.56,1.56c0,0.825 -0.66,1.545 -1.56,1.545Z" style="fill:#54657e;fill-rule:nonzero;"/></g><g id="Update-form-Feb-12--2015"><path d="M224.321,208.641l-12.416,0l0,8.76c0,3.821 -0.198,8.958 -2.47,12.548c0.659,0.362 1.943,1.35 2.437,1.91c2.174,-3.392 2.832,-8.299 2.964,-12.383l9.485,0l0,-10.835Zm-2.997,8.036l-6.455,0l0,-5.237l6.455,0l0,5.237Zm8.3,-4.381l0,-4.94c3.754,-0.889 7.772,-2.141 10.341,-3.359c0.461,0 0.659,0 0.79,-0.132l-2.931,-2.503c-2.173,1.252 -5.796,2.536 -9.254,3.458l-2.009,-0.494l0,8.925c0,5.006 -0.494,11.56 -5.105,16.336c0.757,0.395 1.877,1.482 2.305,2.141c4.512,-4.677 5.632,-11.231 5.83,-16.402l4.94,0l0,16.5l3.096,0l0,-16.5l3.524,0l0,-3.03l-11.527,0Zm-19.3,-9.649l0,2.865l14.952,0l0,-2.865l-14.952,0Z" style="fill:#3d4d65;fill-rule:nonzero;"/><path d="M262.261,222.242l0,-1.515l8.201,0l0,-5.895l-8.201,0l0,-1.679c2.833,-0.264 5.402,-0.593 7.378,-0.988c0.099,0.033 0.197,0.033 0.296,0.033c0.165,0 0.264,-0.033 0.362,-0.099l-1.976,-1.91c-3.952,0.889 -11.263,1.383 -17.323,1.547c0.263,0.56 0.527,1.417 0.593,1.976c2.503,-0.065 5.203,-0.164 7.838,-0.362l0,1.482l-7.838,0l0,5.895l7.838,0l0,1.515l-9.09,0l0,9.584l2.833,0l0,-7.476l6.257,0l0,2.47c-2.042,0.066 -3.919,0.132 -5.401,0.132l0.757,2.668c0.231,-0.033 0.428,-0.198 0.461,-0.461c2.635,-0.132 6.587,-0.363 10.572,-0.659c0.165,0.395 0.33,0.79 0.428,1.153l-0.395,-0.033c0.297,0.626 0.626,1.482 0.791,2.14c4.149,0 5.302,-0.131 5.302,-2.535l0,-6.983l-9.683,0Zm6.06,-14.655l-18.937,0l0,-2.635l18.937,0l0,2.635Zm-13.931,9.123l5.039,0l0,2.14l-5.039,0l0,-2.14Zm13.108,2.14l-5.237,0l0,-2.14l5.237,0l0,2.14Zm3.919,-16.335l-25.162,0l0,9.781c0,5.303 -0.296,12.746 -3.622,17.917c0.79,0.296 2.173,1.086 2.766,1.58c3.458,-5.434 3.985,-13.799 3.985,-19.497l0,-2.272l22.033,0l0,-7.509Zm-7.443,22.724c0.296,0.429 0.626,0.923 0.922,1.417l-2.635,0.098l0,-2.404l6.785,0l0,4.875c0,0.329 -0.066,0.461 -0.988,0.461c-0.231,0 -0.527,-0.033 -0.856,-0.033l1.053,-0.33c-0.362,-1.317 -1.383,-3.227 -2.437,-4.61l-1.844,0.526Z" style="fill:#3d4d65;fill-rule:nonzero;"/><path d="M284.756,227.446l-4.71,0l0,-4.841l4.71,0l0,4.841Zm2.733,-9.452l0,-2.437l-10.045,0l0,2.437l10.045,0Zm-10.111,2.108l0,11.296l2.668,0l0,-1.416l7.443,0l0,-9.88l-10.111,0Zm21.473,-15.348l0,5.138c0,2.767 0.692,3.557 2.997,3.557l2.174,0c1.943,0 2.701,-1.054 2.931,-5.039c-0.79,-0.198 -1.976,-0.659 -2.569,-1.153c-0.065,3.096 -0.197,3.524 -0.691,3.524l-1.318,0c-0.494,0 -0.559,-0.131 -0.559,-0.922l0,-7.871l-10.77,0l0,3.985c0,2.305 -0.461,4.973 -3.557,7.015l0,-1.91l-10.045,0l0,2.437l10.045,0l0,-0.461c0.659,0.395 1.844,1.416 2.273,2.009c3.524,-2.371 4.248,-6.027 4.248,-9.057l0,-1.252l4.841,0Zm3.887,10.572l-13.635,0l0,2.833l12.054,0c-0.922,2.206 -2.24,4.083 -3.886,5.664c-1.647,-1.613 -2.965,-3.524 -3.887,-5.631l-2.766,0.889c1.12,2.536 2.569,4.775 4.347,6.653c-2.173,1.547 -4.742,2.667 -7.443,3.326c0.593,0.659 1.383,1.943 1.68,2.733c2.997,-0.889 5.73,-2.173 8.069,-3.919c2.206,1.713 4.775,3.063 7.706,3.919c0.461,-0.823 1.35,-2.074 2.042,-2.7c-2.766,-0.692 -5.236,-1.812 -7.344,-3.294c2.404,-2.404 4.248,-5.5 5.302,-9.32c0.132,-0.132 0.264,-0.264 0.33,-0.428l-2.009,-0.824l-0.56,0.099Zm-25.162,-13.239l0,2.437l9.847,0l0,-2.437l-9.847,0Zm-1.713,4.413l0,2.503l12.812,0l0,-2.503l-12.812,0Z" style="fill:#3d4d65;fill-rule:nonzero;"/><path d="M334.947,207.686l0,4.742l3.195,0l0,-7.707l-12.284,0l0,-3.03c0.559,-0.065 0.757,-0.263 0.79,-0.559l-4.117,-0.231l0,3.82l-12.186,0l0,7.707l3.063,0l0,-4.742l21.539,0Zm0.461,14.26l0,-2.931l-9.583,0l0,-4.94l7.673,0l0,-2.997l-18.476,0l0,2.997l7.575,0l0,13.042c-2.437,-1.021 -4.314,-2.833 -5.5,-6.027c0.263,-1.153 0.494,-2.339 0.659,-3.557c0.428,0 0.691,-0.165 0.757,-0.461l-3.82,-0.593c-0.692,5.928 -2.47,10.868 -6.027,13.404c0.724,0.494 1.877,1.482 2.404,2.042c2.108,-1.679 3.689,-4.084 4.808,-6.949c3.063,5.302 7.905,6.422 14.524,6.422l8.003,0c0.132,-0.922 0.659,-2.437 1.153,-3.161c-1.91,0.065 -7.542,0.065 -8.991,0.065c-1.68,0 -3.293,-0.098 -4.742,-0.329l0,-6.027l9.583,0Z" style="fill:#3d4d65;fill-rule:nonzero;"/><path d="M203.922,248.543l0,3.576l2.256,0l0,-5.616l-3.576,0c0.72,-0.864 1.44,-1.8 1.944,-2.568c0.312,0.024 0.504,-0.048 0.6,-0.24c-0.12,-0.072 -0.264,-0.144 -2.64,-1.008c-0.6,1.176 -1.584,2.688 -2.472,3.816l-3.672,0l0.84,-0.336c-0.312,-1.056 -1.176,-2.592 -1.992,-3.744l-1.992,0.744c0.672,1.008 1.344,2.328 1.704,3.336l-4.248,0l0.648,-0.312c-0.408,-0.96 -1.416,-2.376 -2.328,-3.384l-1.944,0.888c0.696,0.84 1.44,1.92 1.92,2.808l-3.456,0l0,5.616l2.136,0l0,-3.576l16.272,0Zm-7.056,7.968l0,-0.312c2.064,-1.128 4.128,-2.76 5.448,-4.08c0.168,-0.048 0.36,-0.12 0.456,-0.264l-1.752,-1.056l-0.384,0.096l-11.472,0l0,2.016l9.216,0c-0.768,0.648 -1.632,1.272 -2.52,1.8l-1.296,-0.072l0,1.872l-9.552,0l0,2.112l9.552,0l0,3.792c0,0.504 -0.12,0.504 -1.728,0.504c-0.768,0 -1.8,0 -2.832,-0.048c0.36,0.6 0.792,1.56 0.96,2.208c4.656,0 5.904,-0.192 5.904,-2.592l0,-3.864l9.648,0l0,-2.112l-9.648,0Z" style="fill:#3d4d65;fill-rule:nonzero;"/><path d="M220.05,260.327l10.056,0l0,-12.72l-4.824,0c0.264,-0.696 0.504,-1.416 0.696,-2.04l4.968,0l0,-1.968l-11.688,0l0,1.968l4.392,0c-0.144,0.672 -0.336,1.392 -0.504,2.04l-3.096,0l0,12.72Zm2.064,-5.376l0,-1.992l5.832,0l0,1.992l-5.832,0Zm0,-3.624l0,-1.968l5.832,0l0,1.968l-5.832,0Zm0,7.272l0,-2.016l5.832,0l0,2.016l-5.832,0Zm-4.944,-11.952c0.504,-0.72 1.104,-1.824 1.464,-2.544c0.288,0 0.456,-0.096 0.528,-0.24l-2.136,-0.744c-0.312,0.864 -0.864,2.136 -1.296,2.952l1.44,0.576Zm-2.256,7.032l0,-2.976c1.128,0.84 2.496,1.896 3.12,2.496l1.224,-1.632c-0.672,-0.456 -3.36,-2.136 -4.344,-2.664l0,-0.192l4.128,0l0,-1.8l-4.128,0l0,-3.84c0.36,-0.048 0.504,-0.168 0.528,-0.36l-2.52,-0.168l0,4.368l-4.176,0l0,1.8l3.504,0c-0.984,1.464 -2.472,2.856 -3.888,3.6c0.408,0.36 1.032,1.032 1.344,1.488c1.104,-0.72 2.256,-1.896 3.216,-3.192l0,3.072l1.992,0Zm4.2,4.416l0,-1.968l-4.2,0l0,-1.464c0.36,-0.072 0.528,-0.192 0.552,-0.384l-2.616,-0.168l0,2.016l-4.128,0l0,1.968l4.032,0c-0.288,1.704 -1.272,3.504 -4.416,4.872c0.408,0.384 1.008,1.2 1.224,1.704c2.352,-1.056 3.696,-2.376 4.44,-3.744c1.272,0.936 2.616,2.016 3.36,2.736l1.44,-1.536c-0.936,-0.84 -2.688,-2.112 -4.104,-3.096c0.072,-0.312 0.12,-0.624 0.144,-0.936l4.272,0Zm-9.936,-14.28c0.552,0.888 1.08,2.064 1.248,2.856l1.656,-0.672c-0.168,-0.768 -0.744,-1.92 -1.344,-2.784l-1.56,0.6Zm13.008,16.752c-0.936,1.056 -2.904,2.304 -4.632,3c0.48,0.408 1.152,1.056 1.488,1.512c1.752,-0.768 3.792,-2.088 4.752,-3.168c0.216,-0.024 0.36,-0.096 0.432,-0.192l-2.04,-1.152Zm9.216,3.24c-0.912,-0.912 -2.736,-2.232 -4.104,-3.12l-1.632,1.128c1.392,0.936 3.168,2.328 3.984,3.24l1.752,-1.248Z" style="fill:#3d4d65;fill-rule:nonzero;"/><path d="M246.066,244.247l-2.04,0l-6.864,19.752l2.016,0l6.888,-19.752Z" style="fill:#3d4d65;fill-rule:nonzero;"/><path d="M268.89,257.375l0,-1.2c0.408,-0.048 0.528,-0.192 0.552,-0.384l-1.104,-0.024l0,-0.024l3.6,0l0,-8.088l-7.512,0l0,-1.392l9.432,0l0,-1.92l-9.432,0l0,-1.224c0.408,-0.048 0.552,-0.192 0.576,-0.384l-2.808,-0.168l0,1.776l-9.24,0l0,1.92l9.24,0l0,1.392l-7.176,0l0,8.088l11.64,0l0,1.632l-14.232,0l0,1.944l14.232,0l0,3.288c0,0.456 -0.048,0.456 -1.464,0.456c-0.672,0 -1.56,0 -2.448,-0.048c0.288,0.576 0.6,1.416 0.72,1.992c4.272,0 5.424,-0.024 5.424,-2.328l0,-3.36l5.376,0l0,-1.944l-5.376,0Zm-6.696,-8.112l0,1.68l-5.04,0l0,-1.68l5.04,0Zm7.512,1.68l-5.28,0l0,-1.68l5.28,0l0,1.68Zm-7.512,1.512l0,1.68l-5.04,0l0,-1.68l5.04,0Zm2.232,1.68l0,-1.68l5.28,0l0,1.68l-5.28,0Zm-8.4,6.408c1.344,0.984 2.928,2.448 3.648,3.456l1.8,-1.392c-0.768,-0.984 -2.4,-2.352 -3.744,-3.288l-1.704,1.224Z" style="fill:#3d4d65;fill-rule:nonzero;"/><path d="M298.602,247.007l-9.216,0c0.384,-1.152 0.696,-2.352 0.96,-3.528c0.336,0 0.528,-0.12 0.6,-0.336l-2.832,-0.624c-0.816,4.296 -2.4,8.496 -4.536,10.848c0.552,0.312 1.464,0.984 1.872,1.392c0.624,-0.72 1.2,-1.584 1.728,-2.544c0.696,2.4 1.56,4.536 2.688,6.384c-1.752,1.968 -4.056,3.408 -7.032,4.392c0.384,0.504 0.96,1.512 1.2,2.064c3,-1.08 5.352,-2.568 7.2,-4.488c1.584,1.92 3.528,3.432 5.976,4.464c0.36,-0.648 1.056,-1.584 1.584,-2.04c-2.472,-0.912 -4.464,-2.4 -6,-4.32c1.752,-2.52 2.904,-5.64 3.696,-9.48l2.112,0l0,-2.184Zm-16.824,10.104l0,-9.408l3.672,0l0,-2.184l-9.216,0l0,2.184l3.312,0l0,9.96c-1.344,0.312 -2.592,0.6 -3.576,0.792l1.008,2.568c0.168,-0.072 0.336,-0.216 0.36,-0.408c2.112,-0.576 5.424,-1.512 8.52,-2.424l-0.24,-2.016l-3.84,0.936Zm12.288,-7.92c-0.576,2.928 -1.44,5.376 -2.712,7.416c-1.248,-2.136 -2.136,-4.632 -2.76,-7.392l0.024,-0.024l5.448,0Z" style="fill:#3d4d65;fill-rule:nonzero;"/><path d="M310.722,247.055c0.336,-0.024 0.648,-0.048 0.984,-0.048c5.016,0 7.608,3.072 7.608,6.984c0,4.152 -2.496,6.792 -7.992,7.872c0.6,0.648 1.152,1.488 1.512,2.04c5.928,-1.464 9.024,-4.296 9.024,-9.984c0,-4.944 -3.24,-9.144 -10.128,-9.144c-6.216,0 -10.896,4.656 -10.896,10.608c0,3.936 1.872,6.072 4.2,6.072c4.032,0 6.48,-5.592 7.416,-13.464c0.336,0 0.576,-0.168 0.648,-0.384l-2.376,-0.552Zm-5.616,12.024c-1.104,0 -1.944,-1.488 -1.944,-3.768c0,-3.816 2.64,-7.368 6.864,-8.112c-0.504,6.096 -2.328,11.88 -4.92,11.88Z" style="fill:#3d4d65;fill-rule:nonzero;"/><path d="M334.506,243.983l-5.736,0l0,2.304l5.808,0c0.072,0.912 0.168,1.896 0.336,2.952l-1.248,-0.288c-1.44,6.672 -4.44,11.688 -9.504,14.28c0.576,0.432 1.488,1.296 1.872,1.776c4.704,-2.664 7.704,-7.128 9.48,-12.96c1.2,4.512 3.816,9.528 9.384,12.888c0.384,-0.576 1.32,-1.56 1.824,-1.944c-9.312,-5.52 -9.888,-14.592 -9.888,-19.032l-2.328,0l0,0.024Z" style="fill:#3d4d65;fill-rule:nonzero;"/><path d="M359.274,247.727l0,-4.56c0.408,-0.048 0.552,-0.216 0.576,-0.408l-2.976,-0.168l0,5.136l-7.704,0l0,2.304l7.608,0c-0.384,4.44 -1.992,9.624 -8.352,13.272c0.552,0.408 1.392,1.272 1.776,1.824c6.96,-4.104 8.616,-10.056 8.976,-15.096l7.704,0c-0.288,8.112 -0.624,11.424 -1.344,12.168c-0.288,0.288 -0.552,0.36 -1.056,0.36c-0.624,0 -2.088,0 -3.696,-0.12c0.456,0.648 0.768,1.68 0.816,2.4c0.792,0.024 1.584,0.048 2.304,0.048c2.16,0 3,-0.24 3.768,-1.224c0.96,-1.2 1.296,-4.776 1.632,-15.072c0.024,-0.24 0.048,-0.576 0.048,-0.768l-1.32,-0.12c-0.528,0.024 -0.576,0.024 -1.104,0.024l-7.656,0Z" style="fill:#3d4d65;fill-rule:nonzero;"/></g><g id=""><ellipse cx="274.747" cy="87.481" rx="83.61" ry="83.644" style="fill:#fff;"/><ellipse cx="274.747" cy="87.481" rx="77.845" ry="78.342"/><g><path d="M219.887,48.978l-1.762,2.676l0.776,0.517l0.584,-0.887l3.117,2.079l0.587,-0.892l-3.117,-2.079l0.591,-0.897l-0.776,-0.517Z" style="fill:#fff;fill-rule:nonzero;"/><path d="M224.482,43.085l1.211,1.385c0.367,0.421 0.724,0.816 1.116,1.226l-0.012,0.014c-0.469,-0.317 -0.9,-0.585 -1.371,-0.862l-1.619,-0.952l-0.659,0.793l1.172,1.432c0.37,0.446 0.717,0.881 1.083,1.284l-0.008,0.01c-0.436,-0.281 -0.924,-0.604 -1.391,-0.895l-1.57,-0.973l-0.725,0.872l4.198,2.275l0.721,-0.867l-1.073,-1.372c-0.285,-0.367 -0.6,-0.728 -0.972,-1.152l0.008,-0.009c0.469,0.316 0.878,0.573 1.262,0.793l1.508,0.859l0.729,-0.877l-2.926,-3.804l-0.682,0.82Z" style="fill:#fff;fill-rule:nonzero;"/><path d="M230.823,43.181l0.76,-0.749l-3.266,-3.359l-0.76,0.748l3.266,3.36Z" style="fill:#fff;fill-rule:nonzero;"/><path d="M233.696,34.362l-0.739,0.608l0.704,0.866c0.49,0.602 0.981,1.149 1.367,1.537l-0.009,0.008c-0.434,-0.255 -1.009,-0.559 -1.437,-0.749l-1.677,-0.795l-0.879,0.724l2.958,3.637l0.739,-0.609l-0.727,-0.894c-0.528,-0.649 -0.999,-1.189 -1.366,-1.593l0.018,-0.015c0.437,0.268 1.029,0.574 1.481,0.784l1.706,0.802l0.818,-0.674l-2.957,-3.637Z" style="fill:#fff;fill-rule:nonzero;"/><path d="M238.93,30.845c-0.247,0.033 -0.587,0.144 -0.959,0.392c-0.902,0.602 -1.061,1.46 -0.624,2.123c0.307,0.467 0.878,0.64 1.679,0.514c0.523,-0.087 0.787,-0.073 0.943,0.166c0.154,0.233 0.08,0.516 -0.293,0.764c-0.312,0.209 -0.703,0.331 -0.979,0.362l0.343,0.851c0.248,-0.02 0.702,-0.177 1.095,-0.439c0.941,-0.628 1.146,-1.495 0.676,-2.209c-0.321,-0.487 -0.832,-0.7 -1.634,-0.566c-0.617,0.098 -0.849,0.099 -0.992,-0.118c-0.127,-0.193 -0.071,-0.471 0.271,-0.7c0.312,-0.208 0.604,-0.271 0.792,-0.294l-0.318,-0.846Z" style="fill:#fff;fill-rule:nonzero;"/><path d="M250.926,29.664l0.986,-0.384l-0.602,-1.565c0.07,-0.021 0.157,-0.048 0.252,-0.085c0.682,-0.265 1.559,-0.933 1.091,-2.152c-0.157,-0.408 -0.464,-0.719 -0.828,-0.838c-0.388,-0.136 -0.848,-0.068 -1.423,0.156c-0.496,0.193 -0.875,0.386 -1.137,0.547l1.661,4.321Zm-0.398,-3.985c0.05,-0.039 0.15,-0.097 0.285,-0.15c0.395,-0.153 0.722,-0.027 0.877,0.376c0.152,0.397 0.011,0.771 -0.451,0.951c-0.101,0.04 -0.165,0.058 -0.23,0.077l-0.481,-1.254Z" style="fill:#fff;fill-rule:nonzero;"/><path d="M258.97,25.998l-1.488,0.422l-1.023,-3.652l-1.023,0.29l1.266,4.524l2.512,-0.712l-0.244,-0.872Z" style="fill:#fff;fill-rule:nonzero;"/><path d="M263.49,21.151l-1.325,0.244l-0.374,4.846l1.058,-0.194l0.054,-1.123l1.058,-0.194l0.463,1.027l1.081,-0.198l-2.015,-4.408Zm-0.606,2.955l0.04,-0.966c0.005,-0.273 0.006,-0.711 0.014,-1.003l0.012,-0.003c0.11,0.271 0.263,0.669 0.372,0.933l0.37,0.89l-0.808,0.149Z" style="fill:#fff;fill-rule:nonzero;"/><path d="M271.563,20.243l-0.952,0.071l0.082,1.116c0.057,0.776 0.147,1.507 0.241,2.049l-0.012,0.001c-0.209,-0.46 -0.506,-1.042 -0.748,-1.445l-0.918,-1.62l-1.133,0.084l0.344,4.687l0.952,-0.071l-0.085,-1.152c-0.061,-0.836 -0.138,-1.55 -0.208,-2.093l0.024,-0.002c0.205,0.472 0.515,1.065 0.765,1.498l0.938,1.643l1.054,-0.079l-0.344,-4.687Z" style="fill:#fff;fill-rule:nonzero;"/><path d="M278.786,20.292l-0.954,-0.034l-0.039,1.118c-0.027,0.778 -0.016,1.514 0.019,2.063l-0.012,0c-0.159,-0.48 -0.391,-1.091 -0.588,-1.518l-0.738,-1.711l-1.135,-0.04l-0.164,4.697l0.954,0.034l0.04,-1.155c0.029,-0.838 0.03,-1.556 0.019,-2.104l0.024,0.001c0.152,0.492 0.396,1.115 0.598,1.572l0.756,1.736l1.056,0.038l0.164,-4.697Z" style="fill:#fff;fill-rule:nonzero;"/><path d="M281.884,25.305l1.055,0.133l0.58,-4.663l-1.055,-0.133l-0.58,4.663Z" style="fill:#fff;fill-rule:nonzero;"/><path d="M290.535,22.082l-0.933,-0.204l-0.235,1.094c-0.164,0.76 -0.283,1.487 -0.345,2.033l-0.012,-0.002c-0.071,-0.501 -0.193,-1.143 -0.311,-1.598l-0.425,-1.816l-1.11,-0.242l-0.989,4.593l0.933,0.204l0.243,-1.129c0.177,-0.82 0.304,-1.527 0.389,-2.068l0.024,0.005c0.063,0.512 0.194,1.168 0.312,1.654l0.438,1.844l1.033,0.225l0.988,-4.593Z" style="fill:#fff;fill-rule:nonzero;"/><path d="M296.765,26.042l-1.48,-0.49l-0.263,0.803l0.528,0.175l-0.305,0.935c-0.067,0.01 -0.186,-0.016 -0.329,-0.064c-0.608,-0.201 -0.947,-0.819 -0.638,-1.766c0.332,-1.017 1.01,-1.26 1.721,-1.024c0.373,0.123 0.593,0.266 0.76,0.418l0.465,-0.781c-0.165,-0.157 -0.504,-0.365 -0.969,-0.519c-1.245,-0.412 -2.535,0.013 -3.039,1.555c-0.228,0.699 -0.223,1.385 0.052,1.905c0.243,0.464 0.687,0.816 1.388,1.048c0.476,0.157 1.03,0.213 1.326,0.202l0.783,-2.397Z" style="fill:#fff;fill-rule:nonzero;"/><path d="M306.433,33.599l0.896,0.564l0.885,-1.422c0.058,0.044 0.132,0.097 0.219,0.152c0.62,0.391 1.676,0.698 2.365,-0.41c0.231,-0.371 0.294,-0.805 0.172,-1.169c-0.126,-0.395 -0.455,-0.724 -0.977,-1.053c-0.451,-0.284 -0.832,-0.474 -1.117,-0.589l-2.443,3.927Zm2.932,-2.708c0.061,0.017 0.168,0.063 0.291,0.14c0.358,0.226 0.453,0.566 0.226,0.931c-0.225,0.361 -0.607,0.472 -1.027,0.207c-0.092,-0.058 -0.145,-0.099 -0.198,-0.139l0.708,-1.139Z" style="fill:#fff;fill-rule:nonzero;"/><path d="M316.169,34.656l-1.065,-0.829l-3.833,2.958l0.851,0.662l0.866,-0.709l0.851,0.662l-0.451,1.033l0.87,0.677l1.911,-4.454Zm-2.589,1.52l0.74,-0.615c0.206,-0.178 0.531,-0.471 0.752,-0.66l0.01,0.008c-0.126,0.263 -0.319,0.643 -0.441,0.901l-0.411,0.872l-0.65,-0.506Z" style="fill:#fff;fill-rule:nonzero;"/><path d="M319.723,41.103c0.427,0.176 0.972,0.104 1.353,-0.296c0.885,-0.931 0.05,-1.829 -0.4,-2.262c-0.349,-0.336 -0.705,-0.621 -0.979,-0.808l-3.183,3.347l0.764,0.735l1.257,-1.322l0.148,0.143c0.258,0.248 0.271,0.472 -0.047,0.956c-0.306,0.471 -0.507,0.858 -0.555,0.997l0.794,0.765c0.06,-0.195 0.394,-0.74 0.653,-1.188c0.231,-0.401 0.322,-0.734 0.179,-1.049l0.016,-0.018Zm-0.645,-1.177l0.873,-0.917c0.056,0.028 0.148,0.099 0.27,0.217c0.179,0.173 0.392,0.521 0.024,0.907c-0.263,0.277 -0.643,0.298 -0.966,-0.013l-0.201,-0.194Z" style="fill:#fff;fill-rule:nonzero;"/><path d="M325.994,44.493c-0.064,-0.241 -0.216,-0.567 -0.509,-0.908c-0.707,-0.823 -1.573,-0.873 -2.172,-0.352c-0.42,0.366 -0.518,0.958 -0.292,1.742c0.152,0.511 0.171,0.775 -0.044,0.962c-0.21,0.183 -0.498,0.145 -0.791,-0.196c-0.245,-0.285 -0.415,-0.659 -0.481,-0.931l-0.795,0.45c0.051,0.245 0.264,0.679 0.572,1.038c0.739,0.86 1.619,0.954 2.263,0.393c0.439,-0.381 0.585,-0.918 0.35,-1.703c-0.175,-0.603 -0.205,-0.834 -0.009,-1.005c0.174,-0.151 0.455,-0.13 0.724,0.182c0.245,0.286 0.344,0.569 0.391,0.753l0.793,-0.425Z" style="fill:#fff;fill-rule:nonzero;"/><path d="M326.826,51.672l-0.922,-1.301l0.885,-0.636l0.824,1.163l0.709,-0.508l-0.825,-1.163l0.762,-0.548l0.871,1.228l0.723,-0.519l-1.488,-2.099l-3.802,2.73l1.541,2.172l0.722,-0.519Z" style="fill:#fff;fill-rule:nonzero;"/><path d="M330.864,55.727c0.361,0.289 0.904,0.373 1.381,0.097c1.109,-0.644 0.557,-1.741 0.246,-2.284c-0.241,-0.421 -0.504,-0.795 -0.714,-1.052l-3.988,2.314l0.528,0.922l1.575,-0.914l0.103,0.179c0.178,0.311 0.129,0.529 -0.312,0.904c-0.425,0.366 -0.726,0.681 -0.811,0.8l0.549,0.959c0.112,-0.17 0.585,-0.599 0.959,-0.957c0.333,-0.319 0.513,-0.613 0.463,-0.956l0.021,-0.012Zm-0.291,-1.312l1.094,-0.635c0.045,0.044 0.113,0.138 0.198,0.285c0.123,0.216 0.231,0.61 -0.23,0.877c-0.33,0.192 -0.7,0.105 -0.923,-0.285l-0.139,-0.242Z" style="fill:#fff;fill-rule:nonzero;"/></g><g><path d="M263.002,153.931c-0.241,0.029 -0.507,0.034 -0.832,-0.036c-0.473,-0.102 -0.827,-0.414 -0.73,-0.984l1.967,0.423c0.038,-0.091 0.07,-0.215 0.098,-0.346c0.227,-1.07 -0.171,-1.753 -0.969,-1.924c-0.963,-0.207 -1.681,0.496 -1.883,1.447c-0.218,1.029 0.224,1.796 1.241,2.014c0.407,0.088 0.806,0.099 1.103,0.039l0.005,-0.633Zm-1.432,-1.633c0.093,-0.322 0.364,-0.724 0.783,-0.633c0.431,0.093 0.477,0.544 0.398,0.887l-1.181,-0.254Z" style="fill:#fff;fill-rule:nonzero;"/><path d="M269.221,153.497c0.108,-0.942 -0.317,-1.426 -0.929,-1.498c-0.486,-0.056 -0.848,0.183 -1.027,0.413l-0.018,-0.002l0.01,-0.457l-0.768,-0.09c-0.022,0.298 -0.047,0.619 -0.092,1.012l-0.27,2.349l0.889,0.103l0.229,-1.999c0.059,-0.513 0.411,-0.662 0.651,-0.634c0.378,0.044 0.473,0.385 0.425,0.796l-0.225,1.963l0.888,0.103l0.237,-2.059Z" style="fill:#fff;fill-rule:nonzero;"/><path d="M272.241,155.772l0.888,0.013l0.027,-1.751c0.09,0.02 0.199,0.028 0.326,0.03c0.694,0.01 1.762,-0.259 1.781,-1.542c0.007,-0.431 -0.157,-0.811 -0.431,-1.052c-0.292,-0.26 -0.732,-0.382 -1.318,-0.391c-0.513,-0.008 -0.912,0.028 -1.203,0.079l-0.07,4.614Zm0.948,-3.963c0.079,-0.017 0.206,-0.033 0.387,-0.03c0.496,0.007 0.806,0.274 0.798,0.772c-0.007,0.505 -0.338,0.816 -0.894,0.807c-0.133,-0.002 -0.229,-0.009 -0.314,-0.029l0.023,-1.52Z" style="fill:#fff;fill-rule:nonzero;"/><path d="M278.881,151.339c-0.017,-0.279 -0.223,-0.467 -0.513,-0.448c-0.277,0.018 -0.463,0.231 -0.445,0.51c0.017,0.273 0.223,0.467 0.507,0.448c0.277,-0.017 0.47,-0.219 0.451,-0.51Zm0.029,0.924l-0.892,0.058l0.216,3.379l0.893,-0.057l-0.217,-3.38Z" style="fill:#fff;fill-rule:nonzero;"/><path d="M282.03,151.954l-0.437,0.06l0.089,0.657l0.437,-0.06l0.209,1.548c0.05,0.374 0.181,1.209 1.139,1.078c0.257,-0.036 0.469,-0.095 0.582,-0.16l-0.104,-0.679c-0.087,0.031 -0.157,0.052 -0.283,0.07c-0.269,0.036 -0.418,-0.115 -0.472,-0.519l-0.197,-1.458l0.736,-0.1l-0.089,-0.657l-0.736,0.101l-0.118,-0.874l-0.839,0.379l0.083,0.614Z" style="fill:#fff;fill-rule:nonzero;"/><path d="M289.502,153.25l-1.64,0.368l-0.002,-0.012l0.29,-0.452c0.502,-0.804 0.894,-1.577 0.718,-2.372c-0.161,-0.73 -0.733,-1.243 -1.689,-1.029c-0.513,0.115 -0.93,0.408 -1.16,0.684l0.381,0.575c0.172,-0.201 0.435,-0.44 0.759,-0.513c0.489,-0.11 0.768,0.17 0.855,0.562c0.134,0.605 -0.234,1.292 -0.882,2.359l-0.377,0.646l0.119,0.54l2.789,-0.626l-0.161,-0.73Z" style="fill:#fff;fill-rule:nonzero;"/></g><g><ellipse cx="274.747" cy="87.481" rx="54.573" ry="54.685" style="fill:#fff;"/><path id="" d="M271.035,68.575c0,0 0.696,-0.574 0.462,-1.583c-0.354,-1.529 -4.155,-7.799 -7.288,-10.885c-0.075,-0.074 -5.111,-4.358 -3.934,-17.814c0,0 5.458,1.698 8.656,6.59c0,0 6.419,10.437 6.834,12.628c0,0 -0.56,-5.948 1.677,-12.628c0,0 2.454,-8.946 4.49,-10.201c0,0 7.493,5.365 2.749,25.216c0,0 -1.092,4.691 0,8.478c0,0 6.941,12.096 3.966,23.432c0,0 9.381,9.807 1.031,32.468c0,0 3.796,6.047 3.241,8.761c0,0 -6.528,0.748 -8.238,-2.444c0,0 -3.894,0.894 -5.382,0c0,0 -3.275,4.386 -4.744,4.34c0,0 -1.457,-2.595 -1.548,-4.882c0,0 -4.099,0.733 -6.159,0c0,0 -1.901,4.284 -2.864,4.882c0,0 -3.19,-2.854 -3.709,-4.882c0,0 -1.97,4.092 -7.263,3.541c0,0 -1.318,-2.043 0.636,-6.474c0,0 -5.125,-1.255 -5.254,-7.2c0,0 -3.507,-1.699 0,-5.95c0,0 1.763,-11.902 14.385,-23.612c0,0 -3.769,-2.224 -5.071,-6.273c0,0 -3.24,-6.497 13.327,-15.508Z"/><g><path d="M277.563,59.544l28.922,7.906l-28.922,7.906l-28.922,-7.906l28.922,-7.906Z"/><clipPath id="_clip1"><path d="M277.563,59.544l28.922,7.906l-28.922,7.906l-28.922,-7.906l28.922,-7.906Z"/></clipPath><g clip-path="url(#_clip1)"><path d="M278.006,66.295l17.049,4.346" style="fill:none;stroke:#fff;stroke-width:0.42px;"/></g><ellipse cx="276.799" cy="66.046" rx="1.245" ry="0.57" style="fill:none;stroke:#fff;stroke-width:0.42px;stroke-linecap:round;"/><clipPath id="_clip2"><path d="M306.485,65.779l28.923,12.24l-28.923,12.24l-28.922,-12.24l28.922,-12.24Z"/></clipPath><g clip-path="url(#_clip2)"><rect x="294.585" y="70.499" width="0.683" height="18.947"/></g><clipPath id="_clip3"><path d="M294.911,84.891l3.192,4.562l-7.214,-0.715l4.022,-3.847Z"/></clipPath><g clip-path="url(#_clip3)"><path d="M298.759,87.496l-0.566,-0.482l-3.218,3.793l0.565,0.482l3.219,-3.793Zm-1.1,-0.789l-0.566,-0.482l-3.218,3.792l0.565,0.482l3.219,-3.792Zm-1.217,-0.562l-0.565,-0.482l-3.219,3.793l0.566,0.482l3.218,-3.793Zm-1.174,-0.633l-0.565,-0.482l-3.219,3.792l0.566,0.482l3.218,-3.792Z"/></g></g></g></g></svg>