<?xml version="1.0" encoding="UTF-8" standalone="no"?><!DOCTYPE svg PUBLIC "-//W3C//DTD SVG 1.1//EN" "http://www.w3.org/Graphics/SVG/1.1/DTD/svg11.dtd"><svg width="100%" height="100%" viewBox="0 0 177 296" version="1.1" xmlns="http://www.w3.org/2000/svg" xmlns:xlink="http://www.w3.org/1999/xlink" xml:space="preserve" style="fill-rule:evenodd;clip-rule:evenodd;stroke-linecap:square;stroke-linejoin:round;stroke-miterlimit:1.5;"><g id="取得済み"><path id="うさぎ" d="M72.459,99.814c0,0 2.061,-1.688 1.369,-4.658c-1.048,-4.496 -12.299,-22.938 -21.572,-32.013c-0.222,-0.217 -15.13,-12.817 -11.645,-52.394c0,0 16.155,4.993 25.622,19.381c0,0 19,30.697 20.228,37.143c0,0 -1.658,-17.496 4.964,-37.143c0,0 7.262,-26.309 13.289,-30.001c0,0 22.179,15.779 8.137,74.163c0,0 -3.232,13.796 0,24.936c0,0 20.544,35.577 11.738,68.915c0,0 27.766,28.846 3.053,95.493c0,0 11.236,17.785 9.591,25.768c0,0 -19.323,2.201 -24.382,-7.187c0,0 -11.527,2.629 -15.929,0c0,0 -9.695,12.898 -14.045,12.762c0,0 -4.31,-7.629 -4.581,-14.356c0,0 -12.132,2.154 -18.23,0c0,0 -5.627,12.598 -8.476,14.356c0,0 -9.441,-8.394 -10.979,-14.356c0,0 -5.831,12.034 -21.497,10.414c0,0 -3.902,-6.01 1.881,-19.041c0,0 -15.168,-3.692 -15.551,-21.177c0,0 -10.38,-4.998 0,-17.499c0,0 5.22,-35.006 42.58,-69.446c0,0 -11.158,-6.54 -15.01,-18.451c0,0 -9.592,-19.108 39.445,-45.609Z" style="fill:#f9736a;"/><g><path d="M91.782,73.252l85.607,23.253l-85.607,23.253l-85.606,-23.253l85.606,-23.253Z" style="fill:#f9736a;"/><clipPath id="_clip1"><path d="M91.782,73.252l85.607,23.253l-85.607,23.253l-85.606,-23.253l85.606,-23.253Z"/></clipPath><g clip-path="url(#_clip1)"><path d="M93.092,93.106l50.463,12.784" style="fill:#f9736a;stroke:#fff;stroke-width:0.42px;"/></g><ellipse cx="89.52" cy="92.374" rx="3.684" ry="1.678" style="fill:#f9736a;stroke:#fff;stroke-width:0.42px;stroke-linecap:round;"/><clipPath id="_clip2"><path d="M177.389,91.59l85.607,35.999l-85.607,36l-85.607,-36l85.607,-35.999Z"/></clipPath><g clip-path="url(#_clip2)"><rect x="142.164" y="105.471" width="2.022" height="55.726" style="fill:#f9736a;"/></g><clipPath id="_clip3"><path d="M143.131,147.802l9.447,13.417l-21.351,-2.104l11.904,-11.313Z"/></clipPath><g clip-path="url(#_clip3)"><path d="M154.519,155.462l-1.674,-1.417l-9.526,11.154l1.674,1.417l9.526,-11.154Zm-3.256,-2.322l-1.674,-1.417l-9.526,11.155l1.673,1.417l9.527,-11.155Zm-3.601,-1.651l-1.673,-1.417l-9.527,11.154l1.674,1.417l9.526,-11.154Zm-3.475,-1.863l-1.674,-1.417l-9.526,11.154l1.674,1.417l9.526,-11.154Z" style="fill:#f9736a;"/></g></g></g></svg>