<?xml version="1.0" encoding="UTF-8" standalone="no"?><!DOCTYPE svg PUBLIC "-//W3C//DTD SVG 1.1//EN" "http://www.w3.org/Graphics/SVG/1.1/DTD/svg11.dtd"><svg width="100%" height="100%" viewBox="0 0 100 100" version="1.1" xmlns="http://www.w3.org/2000/svg" xmlns:xlink="http://www.w3.org/1999/xlink" xml:space="preserve" style="fill-rule:evenodd;clip-rule:evenodd;stroke-linejoin:round;stroke-miterlimit:1.41421;"><path id="Checked-Circle-Icon" d="M49.972,99.953c-27.606,0 -49.985,-22.378 -49.985,-49.985c0,-27.605 22.379,-49.986 49.985,-49.986c27.606,0 49.985,22.381 49.985,49.986c0,27.607 -22.379,49.985 -49.985,49.985Zm26.326,-67.746c-2.559,-2.454 -6.707,-2.454 -9.266,0l-23.301,22.129l-6.657,-6.192c-2.559,-2.451 -6.707,-2.451 -9.265,0c-2.559,2.459 -2.559,6.438 0,8.891l11.289,10.635c2.56,2.457 6.707,2.457 9.266,0l27.934,-26.57c2.558,-2.454 2.558,-6.437 0,-8.893Z" style="fill:#96d946;"/></svg>