<?xml version="1.0" encoding="UTF-8" standalone="no"?><!DOCTYPE svg PUBLIC "-//W3C//DTD SVG 1.1//EN" "http://www.w3.org/Graphics/SVG/1.1/DTD/svg11.dtd"><svg width="100%" height="100%" viewBox="0 0 550 370" version="1.1" xmlns="http://www.w3.org/2000/svg" xmlns:xlink="http://www.w3.org/1999/xlink" xml:space="preserve" style="fill-rule:evenodd;clip-rule:evenodd;stroke-linejoin:round;stroke-miterlimit:1.41421;"><g id="Filler-Text" transform="matrix(1,0,0,1,-0.546267,178.726)"><text x="0px" y="12px" style="font-family:'KozGoPro-Regular', 'Kozuka Gothic Pro', sans-serif;font-size:15px;fill:#54657e;">※<tspan x="16.5px 33px 49.5px 66px 82.5px 99px 115.5px 131.7px 147.9px 164.4px 180.9px 197.4px 213.9px 230.4px 246.9px 263.4px 279.9px 296.4px 312.9px 329.4px 345.9px 362.4px 378.9px 395.4px 411.9px 428.4px 444.9px 461.4px 477.9px 494.4px 510.9px 526.8px " y="12px 12px 12px 12px 12px 12px 12px 12px 12px 12px 12px 12px 12px 12px 12px 12px 12px 12px 12px 12px 12px 12px 12px 12px 12px 12px 12px 12px 12px 12px 12px 12px ">専攻がまだ決まっていない場合は、現時点での専攻分野の予定を選んで</tspan></text><text x="0px" y="37px" style="font-family:'KozGoPro-Regular', 'Kozuka Gothic Pro', sans-serif;font-size:15px;fill:#54657e;">く<tspan x="16.5px 33px 49.5px 65.85px 82.35px 98.85px 115.35px 131.85px 148.35px 164.85px 181.35px 197.55px 213.9px 230.4px 246.9px 263.4px 279.9px 296.4px 312.9px 329.4px 345.75px 362.25px 378.75px 395.25px 411.75px 428.25px 443.55px " y="37px 37px 37px 37px 37px 37px 37px 37px 37px 37px 37px 37px 37px 37px 37px 37px 37px 37px 37px 37px 37px 37px 37px 37px 37px 37px 37px ">ださい。また学類によっては専攻がないところもあります。</tspan></text><text x="0px" y="62px" style="font-family:'KozGoPro-Regular', 'Kozuka Gothic Pro', sans-serif;font-size:15px;fill:#54657e;">そ<tspan x="16.5px 33px 49.5px 66px 82.5px 99px 115.5px 132px 148.5px 165px 181.5px 198px 214.5px 230.55px 247.05px 263.55px 280.05px 296.55px 312.9px " y="62px 62px 62px 62px 62px 62px 62px 62px 62px 62px 62px 62px 62px 62px 62px 62px 62px 62px 62px ">の場合は、専攻なしを選択してください。</tspan></text></g><path id="Line" d="M556.593,115.263l0,-1.937l-563.186,0l0,1.937l563.186,0Z" style="fill:#c9d3df;"/></svg>